<svg xmlns="http://www.w3.org/2000/svg" viewBox="0 0 512.003 512.003"><path d="M50.2 0v102.769h63.174V0H50.2zm47.513 87.107H65.862V15.662h31.851v71.445zM2.688 110.863v142.451h15.661V126.525h126.877v126.789h15.662V110.863z"/><path d="M33.499 171.618v15.662h7.309v65.779H56.47v-81.441zm71 0v81.441h15.662V187.28h9.397v-15.662zm294.129 81.784v102.769h63.174V253.402h-63.174zm47.512 87.107h-31.851v-71.446h31.851v71.446zm-95.025 23.757v142.451h15.662V379.928h126.877v126.789h15.662V364.266z"/><path d="M383.278 424.294v15.662h6.265v66.823h15.662v-82.485zm69.956 0v82.485h15.662v-66.823h9.397v-15.662zM232.561 30.226l-11.074 11.076 11.288 11.287H129.558v15.662h101.417l-9.488 9.488 11.074 11.076 29.294-29.295zm101.644 419.127H178.592l11.066-11.067-11.073-11.076-29.294 29.295 29.294 29.294 11.073-11.075-9.709-9.709h154.256zm115.273-261.185l-10.862 10.863v-68.133h-15.661v67.185l-9.915-9.915-11.074 11.075 29.294 29.294 29.293-29.294zM287.765 0v110.688h221.551V0H287.765zm15.661 95.026V68.251h30.778V52.589h-30.778V15.662h56.592c-10.364 10.064-16.823 24.128-16.823 39.682 0 15.553 6.458 29.618 16.823 39.683h-56.592zm95.114 0c-21.882 0-39.683-17.802-39.683-39.683s17.801-39.682 39.683-39.682c21.88 0 39.682 17.801 39.682 39.682s-17.801 39.683-39.682 39.683zm95.114-42.437h-32.067v15.662h32.067v26.775h-56.592c10.364-10.064 16.823-24.13 16.823-39.683s-6.459-29.617-16.823-39.682h56.592v36.928zM81.305 345.214c-29.299 0-52.25 23.811-52.25 54.207 0 19.156 11.015 36.983 28.457 46.686v16.82h15.662v-26.735l-4.642-2.068c-14.467-6.452-23.816-20.072-23.816-34.701 0-21.974 15.729-38.546 36.588-38.546 20.771 0 37.041 16.931 37.041 38.546 0 16.164-4.081 28.196-23.997 34.374l-5.511 1.709v27.423h15.662v-16.127c26.315-10.61 29.509-31.884 29.509-47.378-.001-30.399-23.15-54.21-52.703-54.21zM50.202 472.327h63.691v15.662H50.202zm7.309 24.014h48.029v15.662H57.511z"/><path d="M81.529 372.185v15.662c4.176 0 8.265 4.08 8.265 8.257h15.662c0-13.574-10.354-23.919-23.927-23.919zm.258-102.013l-29.293 29.294 11.074 11.075 9.608-9.608v35.656h15.662v-37.217l11.168 11.169 11.074-11.075zM398.54 23.757c-17.418 0-31.588 14.17-31.588 31.587 0 17.418 14.17 31.588 31.588 31.588 17.417 0 31.587-14.17 31.587-31.588s-14.17-31.587-31.587-31.587zm0 47.512c-8.782 0-15.926-7.145-15.926-15.926s7.144-15.925 15.926-15.925c8.781 0 15.925 7.144 15.925 15.925s-7.144 15.926-15.925 15.926z"/></svg>