<svg xmlns="http://www.w3.org/2000/svg" viewBox="0 0 470 470"><path d="M430.809 30h-40.491c-4.143 0-7.5 3.358-7.5 7.5s3.357 7.5 7.5 7.5h13.952a30.81 30.81 0 0 0-4.457 15.997v354.509c0 4.142 3.357 7.5 7.5 7.5s7.5-3.358 7.5-7.5V60.997c0-8.821 7.176-15.997 15.996-15.997 8.821 0 15.998 7.176 15.998 15.997v354.509c0 21.777-17.717 39.494-39.494 39.494s-39.494-17.717-39.494-39.494V7.5a7.5 7.5 0 0 0-7.5-7.5H15.693a7.5 7.5 0 0 0-7.5 7.5v408.006C8.193 445.554 32.64 470 62.688 470h344.625c30.048 0 54.494-24.446 54.494-54.494V60.997c0-17.092-13.906-30.997-30.998-30.997zM62.688 455c-21.777 0-39.494-17.717-39.494-39.494V15h329.625v400.506c0 15.526 6.529 29.559 16.983 39.494H62.688z"/><path d="M320.318 40H55.693a7.5 7.5 0 0 0-7.5 7.5v75a7.5 7.5 0 0 0 7.5 7.5h264.625a7.5 7.5 0 0 0 7.5-7.5v-75a7.5 7.5 0 0 0-7.5-7.5zm-7.5 75H63.193V55h249.625v60zm7.5 30H55.693c-4.143 0-7.5 3.358-7.5 7.5s3.357 7.5 7.5 7.5h264.625c4.143 0 7.5-3.358 7.5-7.5s-3.357-7.5-7.5-7.5zm0 60H203.006c-4.143 0-7.5 3.358-7.5 7.5s3.357 7.5 7.5 7.5h117.313a7.5 7.5 0 1 0-.001-15zm-147.312 0H55.693c-4.143 0-7.5 3.358-7.5 7.5s3.357 7.5 7.5 7.5h117.313a7.5 7.5 0 0 0 0-15zm147.312 30H203.006c-4.143 0-7.5 3.358-7.5 7.5s3.357 7.5 7.5 7.5h117.313a7.5 7.5 0 1 0-.001-15zm-147.312 0H55.693c-4.143 0-7.5 3.358-7.5 7.5s3.357 7.5 7.5 7.5h117.313a7.5 7.5 0 0 0 0-15zm147.312 30H203.006c-4.143 0-7.5 3.358-7.5 7.5s3.357 7.5 7.5 7.5h117.313a7.5 7.5 0 1 0-.001-15zm0 30H203.006c-4.143 0-7.5 3.358-7.5 7.5s3.357 7.5 7.5 7.5h117.313a7.5 7.5 0 1 0-.001-15zm-117.312 45h77.313c4.143 0 7.5-3.358 7.5-7.5s-3.357-7.5-7.5-7.5h-77.313c-4.143 0-7.5 3.358-7.5 7.5s3.357 7.5 7.5 7.5zm77.312 75h-77.313c-4.143 0-7.5 3.358-7.5 7.5s3.357 7.5 7.5 7.5h77.313c4.143 0 7.5-3.358 7.5-7.5s-3.357-7.5-7.5-7.5zm40-30H203.006c-4.143 0-7.5 3.358-7.5 7.5s3.357 7.5 7.5 7.5h117.313a7.5 7.5 0 1 0-.001-15zM173.006 265H55.693a7.5 7.5 0 0 0-7.5 7.5v150a7.5 7.5 0 0 0 7.5 7.5h117.313a7.5 7.5 0 0 0 7.5-7.5v-150a7.5 7.5 0 0 0-7.5-7.5zm-7.5 150H63.193V280h102.313v135z"/></svg>