<svg xmlns="http://www.w3.org/2000/svg" viewBox="0 0 60 60"><path d="M60 4H31V1a1 1 0 1 0-2 0v3H0v42h27.586L15.293 58.293a.999.999 0 1 0 1.414 1.414L29 47.414V57a1 1 0 1 0 2 0v-9.586l12.293 12.293a.997.997 0 0 0 1.414 0 .999.999 0 0 0 0-1.414L32.414 46H60V4zm-2 40H2V6h56v38z"/><path d="M11 27.122V28a1 1 0 1 0 2 0v-.882a4.982 4.982 0 0 0 2.818-1.668 3.441 3.441 0 0 0 .794-2.604 3.649 3.649 0 0 0-1.383-2.489l-5.23-4.068a1.642 1.642 0 0 1-.622-1.12 1.457 1.457 0 0 1 .332-1.104A2.99 2.99 0 0 1 12 13c1.654 0 3 1.346 3 3a1 1 0 1 0 2 0 5.01 5.01 0 0 0-4-4.899v-.878a1 1 0 1 0-2 0v.882a4.98 4.98 0 0 0-2.818 1.667 3.443 3.443 0 0 0-.794 2.603 3.65 3.65 0 0 0 1.383 2.492l5.23 4.068c.35.271.576.68.622 1.119a1.46 1.46 0 0 1-.332 1.105A2.992 2.992 0 0 1 12 25.222c-1.654 0-3-1.346-3-3a1 1 0 1 0-2 0 5.01 5.01 0 0 0 4 4.9zM39 20h14v4H42a1 1 0 1 0 0 2h11v4h-4a1 1 0 1 0 0 2h4v5h-7a1 1 0 1 0 0 2h7v2a1 1 0 1 0 2 0V10a1 1 0 1 0-2 0v2h-7a1 1 0 1 0 0 2h7v4H39a1 1 0 1 0 0 2zM16 38H8a1 1 0 1 0 0 2h8a1 1 0 1 0 0-2zm4.29.29c-.181.189-.29.439-.29.71 0 .27.109.52.29.7.189.19.439.3.71.3.26 0 .52-.11.71-.29.18-.19.29-.45.29-.71s-.11-.521-.29-.71c-.37-.37-1.05-.37-1.42 0zM21 33h-3a1 1 0 1 0 0 2h3a1 1 0 1 0 0-2zM8 35h2a1 1 0 1 0 0-2H8a1 1 0 1 0 0 2zm5.29-1.71c-.181.189-.29.45-.29.71 0 .27.109.52.29.71.189.18.45.29.71.29s.52-.11.71-.29c.18-.19.29-.45.29-.71s-.11-.521-.29-.71c-.38-.37-1.04-.37-1.42 0z"/></svg>