<svg xmlns="http://www.w3.org/2000/svg" viewBox="0 0 64 64"><path d="M63 21.999H52V8.72l4-1.333v4.797A2.996 2.996 0 0 0 54 15c0 1.654 1.346 3 3 3s3-1.346 3-3a2.996 2.996 0 0 0-2-2.816V6a.998.998 0 0 0-.684-.948l-15-5a1.008 1.008 0 0 0-.633 0l-15 5a.998.998 0 1 0 .001 1.896L32 8.72v13.279H21a1 1 0 0 0-1 1v40a1 1 0 0 0 1 1h42a1 1 0 0 0 1-1V23a1 1 0 0 0-1-1.001zM57 14a1.001 1.001 0 1 1-1 1c0-.552.449-1 1-1zM30.162 6L42 2.053 53.838 6 42 9.946 30.162 6zM50 9.386v12.613H34V9.386l7.684 2.561a.98.98 0 0 0 .632.001L50 9.386zm12 52.613H22v-2h40v2zm0-4H22v-2h40v2zm0-4H22v-2h40v2zm0-4H22v-2h40v2zm0-4H22v-22h40v22z"/><path d="M59.999 31a1 1 0 0 0-1-1 3.004 3.004 0 0 1-3-3 1 1 0 0 0-1-1H29a1 1 0 0 0-1 1c0 1.654-1.346 3-3 3a1.003 1.003 0 0 0-1 1v8a1 1 0 0 0 1 1c1.654 0 3 1.345 3 3a1 1 0 0 0 1 1h26a1 1 0 0 0 1-1c0-1.654 1.346-3 3-3a1 1 0 0 0 1-1l-.001-8zM58 38.1a4.956 4.956 0 0 0-3.899 3.899H29.899A4.955 4.955 0 0 0 26 38.1v-6.201a4.956 4.956 0 0 0 3.899-3.9H54.1a4.96 4.96 0 0 0 3.9 3.9V38.1z"/><path d="M42 30c-2.757 0-5 2.243-5 5 0 2.756 2.243 5 5 5s5-2.243 5-5-2.243-5-5-5zm0 8c-1.654 0-3-1.346-3-3s1.346-3 3-3 3 1.346 3 3-1.346 3-3 3zm-24 4.999v-4a1 1 0 0 0-1-1h-1v-3a1 1 0 0 0-1-1H1a1 1 0 0 0-1 1v4a1 1 0 0 0 1 1h1v2a1 1 0 0 0-1 1v4a1 1 0 0 0 1 1v2a1 1 0 0 0-1 1v4a1 1 0 0 0 1 1v7a1 1 0 0 0 1 1h14a1 1 0 0 0 1-1v-8a1 1 0 0 0-1-1v-2a1 1 0 0 0 1-1v-4a1 1 0 0 0-1-1v-2a1 1 0 0 0 1-1zm-8-7h4v2h-4v-2zM13 44h2v2h-2v-2zm2 8v2h-2v-2h2zM9 39.999h3v2H9v-2zm0 10v-2h3v2H9zm2 2v2H8v-2h3zM6 36h2v2H6v-2zm-2 5.999v-2h3v2H4zM5 44v2H3v-2h2zm-3-6v-2h2v2H2zm1 13.999h3v2H3v-2zM6 56v2H4v-2h2zm1 5.999H4v-2h3v2zm0-12H4v-2h3v2zm0-6h4v2H7v-2zM8 56h2v2H8v-2zm4 5.999H9v-2h3v2zM16 62h-2v-2h2v2zm0-4.001h-4v-2h4v2zM16 50h-2v-2h2v2zm0-8h-2v-2h2v2zM6 23.999v-2H4v2H2v2h2v2h2v-2h2v-2zm6-7v-2h-2v2H8v2h2v2h2v-2h2v-2zM46 19h2v2h-2zm-4 0h2v2h-2zm-4 0h2v2h-2z"/></svg>