<?xml version="1.0" encoding="utf-8"?>
<!-- Generator: Adobe Illustrator 21.0.2, SVG Export Plug-In . SVG Version: 6.00 Build 0)  -->
<svg version="1.1" id="Слой_1" xmlns="http://www.w3.org/2000/svg" xmlns:xlink="http://www.w3.org/1999/xlink" x="0px" y="0px"
	 viewBox="0 0 246.4 78.3" style="enable-background:new 0 0 246.4 78.3;" xml:space="preserve">
<style type="text/css">
	.st0{enable-background:new    ;}
	.st1{fill:#055C9F;}
	.st2{fill:#ffff;}
	.st3{fill:none;stroke:#000000;stroke-width:2;stroke-miterlimit:10;}
	.st4{fill:none;stroke:#147CAF;stroke-width:2;stroke-miterlimit:10;}
	.st5{fill:none;stroke:#055C9F;stroke-width:2;stroke-miterlimit:10;}
	.st6{fill:#1A81B5;}
</style>
<title>Ресурс 1</title>
<g id="Слой_2">
	<g id="Слой_1-2">
		<g class="st0">
			<path class="st1" d="M98.7,43.1V22.3h12.8v4h-8.9v16.8H98.7z"/>
		</g>
		<g class="st0">
			<path class="st1" d="M121.5,22.3c4.4,0,7.9,1.6,7.9,7s-3.5,7-7.9,7h-3v6.8h-3.9V22.3H121.5z M121.7,26.2h-3.2v6.1h3.2
				c2,0,3.7-0.6,3.7-3.1C125.4,26.8,123.7,26.2,121.7,26.2z"/>
		</g>
		<g class="st0">
			<path class="st1" d="M135.6,43.5c-0.9,0-1.9-0.2-2.8-0.5v-3.8c0.6,0.2,1.4,0.4,2.1,0.4c1.2,0,2.2-0.3,2.8-1.9l0.3-0.7l-7.3-14.7
				h4.3l4.8,10.7l4-10.7h4.3l-6.6,16C139.9,42.4,137.9,43.5,135.6,43.5z"/>
		</g>
		<g class="st0">
			<path class="st1" d="M156.6,43.5c-2.2,0-4.3-0.4-6.8-1.3v-4.3c2.4,1.3,4.5,1.6,6.5,1.6c2,0,3.9-0.6,3.9-2.7
				c0-1.9-1.5-2.4-3.3-2.4h-4.1l0-3.9h3.8c1.7,0,2.8-0.7,2.8-2.2c0-1.7-1.3-2.4-3.6-2.4c-1.6,0-3.5,0.4-5.7,1.6v-4.2
				c2.1-1,4.2-1.4,6.1-1.4c4.3,0,7.2,1.8,7.2,5.7c0,2.3-1.1,3.9-2.9,4.5c1.9,0.6,3.7,2.2,3.7,5.3C164.1,42.1,160.2,43.5,156.6,43.5z
				"/>
		</g>
		<g class="st0">
			<path class="st1" d="M181.1,22.3v4h-5.6v16.8h-3.9V26.3H166v-4H181.1z"/>
		</g>
		<g class="st0">
			<path class="st1" d="M180.4,43.1l7.5-20.8h4.2l7.4,20.8h-4l-1.3-3.9h-8.4l-1.4,3.9H180.4z M187,35.5h5.9l-2.6-7.5
				c-0.1-0.4-0.3-0.8-0.4-1.6c-0.1,0.8-0.3,1.2-0.4,1.6L187,35.5z"/>
			<path class="st1" d="M214.5,43.1V32.4c0-1,0-2,0.1-2.9l-8.5,13.6h-3.7V22.3h3.9V33c0,1,0,2-0.1,2.9l8.5-13.6h3.7v20.8H214.5z
				 M214.5,19.5v-3.2c-1.4,1-2.7,1.3-4.1,1.3c-1.4,0-2.7-0.3-4.1-1.3v3.2c1.1,0.9,2.4,1.3,4.1,1.3C212.1,20.8,213.3,20.4,214.5,19.5
				z"/>
			<path class="st1" d="M242.9,22.3v20.8H239V30.3l-4.8,8.3h-2.3l-4.8-8.4v12.8h-3.9V22.3h3.6l6.3,10.8l6.2-10.8H242.9z"/>
		</g>
		<g class="st0">
			<path class="st2" d="M98.4,59.8v-7.3h4.8v0.8h-3.9v6.5H98.4z"/>
		</g>
		<g class="st0">
			<path class="st2" d="M106,54.6c1.4,0,2.5,1.1,2.5,2.6c0,1.5-1.1,2.6-2.5,2.6c-1,0-1.6-0.5-1.9-0.9v3.1h-0.8v-7.3h0.8v0.8
				C104.4,55,105.1,54.6,106,54.6z M105.9,55.4c-0.9,0-1.6,0.6-1.9,1.2v1.3c0.3,0.6,1,1.2,1.9,1.2c1,0,1.8-0.7,1.8-1.9
				C107.7,56.1,106.9,55.4,105.9,55.4z"/>
		</g>
		<g class="st0">
			<path class="st2" d="M113.5,54.7h0.9l-2.5,5.8c-0.5,1.2-1.2,1.7-1.9,1.7c-0.2,0-0.4,0-0.5-0.1v-0.7c0.1,0,0.3,0.1,0.4,0.1
				c0.6,0,1-0.4,1.3-1.2l0.2-0.5l-2.4-5h0.9l1.9,4.1L113.5,54.7z"/>
		</g>
		<g class="st0">
			<path class="st2" d="M116.9,59.9c-0.7,0-1.4-0.2-1.9-0.4v-0.8c0.4,0.2,1.1,0.4,1.7,0.4c0.8,0,1.5-0.1,1.5-0.8
				c0-0.6-0.6-0.7-1.1-0.7h-1.1v-0.8h1.1c0.6,0,1-0.2,1-0.6c0-0.6-0.6-0.8-1.4-0.8c-0.6,0-1.2,0.2-1.7,0.4V55
				c0.5-0.2,1.1-0.4,1.8-0.4c1.4,0,2.1,0.6,2.1,1.5c0,0.6-0.4,1-0.9,1.1c0.6,0.1,1,0.6,1,1.2C119.2,59.4,118.3,59.9,116.9,59.9z"/>
			<path class="st2" d="M123,54.6c1.4,0,2.7,0.9,2.7,2.6c0,1.7-1.3,2.6-2.7,2.6c-1.4,0-2.7-0.9-2.7-2.6
				C120.3,55.5,121.6,54.6,123,54.6z M123,55.4c-1,0-1.8,0.7-1.8,1.8c0,1.2,0.8,1.8,1.8,1.8c1,0,1.8-0.7,1.8-1.8
				C124.8,56.1,124,55.4,123,55.4z"/>
			<path class="st2" d="M127.1,59.8v-5h4.6v5h-0.8v-4.3h-2.9v4.3H127.1z"/>
			<path class="st2" d="M135.5,54.6c1.9,0,2.6,1.6,2.3,3h-4c0.1,1.1,1.1,1.5,2.1,1.5c0.6,0,1.2-0.2,1.7-0.4v0.8
				c-0.5,0.2-1.1,0.4-1.8,0.4c-1.5,0-2.8-0.8-2.8-2.6C133,55.5,134.4,54.6,135.5,54.6z M135.6,55.4c-0.9,0-1.7,0.5-1.7,1.5h3.3
				C137.2,56.3,136.9,55.4,135.6,55.4z"/>
			<path class="st2" d="M142.1,54.6c1.4,0,2.5,1.1,2.5,2.6c0,1.5-1.1,2.6-2.5,2.6c-1,0-1.6-0.5-1.9-0.9v3.1h-0.8v-7.3h0.8v0.8
				C140.5,55,141.1,54.6,142.1,54.6z M142,55.4c-0.9,0-1.6,0.6-1.9,1.2v1.3c0.3,0.6,1,1.2,1.9,1.2c1,0,1.8-0.7,1.8-1.9
				C143.8,56.1,143,55.4,142,55.4z"/>
			<path class="st2" d="M148.2,54.6c1.9,0,2.6,1.6,2.3,3h-4c0.1,1.1,1.1,1.5,2.1,1.5c0.6,0,1.2-0.2,1.7-0.4v0.8
				c-0.5,0.2-1.1,0.4-1.8,0.4c-1.5,0-2.8-0.8-2.8-2.6C145.7,55.5,147,54.6,148.2,54.6z M148.2,55.4c-0.9,0-1.7,0.5-1.7,1.5h3.3
				C149.8,56.3,149.5,55.4,148.2,55.4z"/>
			<path class="st2" d="M151.9,59.8v-5h2.8c0.9,0,1.5,0.5,1.5,1.4c0,0.5-0.3,0.9-0.7,1.1c0.4,0.1,0.8,0.5,0.8,1.2
				c0,0.8-0.5,1.4-1.6,1.4H151.9z M152.8,56.9h1.8c0.4,0,0.8-0.2,0.8-0.7c0-0.6-0.4-0.7-0.8-0.7h-1.8V56.9z M152.8,59h1.9
				c0.5,0,0.9-0.2,0.9-0.7c0-0.6-0.5-0.7-0.9-0.7h-1.9V59z"/>
		</g>
		<g class="st0">
			<path class="st2" d="M159.9,54.6c1.4,0,2.7,0.9,2.7,2.6c0,1.7-1.3,2.6-2.7,2.6c-1.4,0-2.7-0.9-2.7-2.6
				C157.2,55.5,158.5,54.6,159.9,54.6z M159.9,55.4c-1,0-1.8,0.7-1.8,1.8c0,1.2,0.8,1.8,1.8,1.8c1,0,1.8-0.7,1.8-1.8
				C161.8,56.1,160.9,55.4,159.9,55.4z"/>
		</g>
		<g class="st0">
			<path class="st2" d="M165.4,59.9c-0.7,0-1.4-0.2-1.9-0.4v-0.8c0.4,0.2,1.1,0.4,1.7,0.4c0.8,0,1.5-0.1,1.5-0.8
				c0-0.6-0.6-0.7-1.1-0.7h-1.1v-0.8h1.1c0.6,0,1-0.2,1-0.6c0-0.6-0.6-0.8-1.4-0.8c-0.6,0-1.2,0.2-1.7,0.4V55
				c0.5-0.2,1.1-0.4,1.8-0.4c1.4,0,2.1,0.6,2.1,1.5c0,0.6-0.4,1-0.9,1.1c0.6,0.1,1,0.6,1,1.2C167.6,59.4,166.8,59.9,165.4,59.9z"/>
			<path class="st2" d="M169,59.8v-5h0.8v2.1h1l1.6-2.1h1l-1.9,2.5l2.1,2.5h-1l-1.8-2.2h-1v2.2H169z"/>
			<path class="st2" d="M174.5,59.8v-5h0.8v3.7l3.1-3.7h0.7v5h-0.8v-3.7l-3.1,3.7H174.5z"/>
			<path class="st2" d="M183.5,59.8v-5h0.8v3.7l3.1-3.7h0.7v5h-0.8v-3.7l-3.1,3.7H183.5z"/>
			<path class="st2" d="M192.4,59.8c-0.2,0-0.4,0-0.6-0.1v-0.7c0.1,0,0.2,0.1,0.3,0.1c0.9,0,1.2-1.7,1.3-4.4h3.7v5h-0.8v-4.3h-2
				C194.1,58.1,193.7,59.8,192.4,59.8z"/>
			<path class="st2" d="M201.1,54.6c1.4,0,2.7,0.9,2.7,2.6c0,1.7-1.3,2.6-2.7,2.6c-1.4,0-2.7-0.9-2.7-2.6
				C198.4,55.5,199.8,54.6,201.1,54.6z M201.1,55.4c-1,0-1.8,0.7-1.8,1.8c0,1.2,0.8,1.8,1.8,1.8c1,0,1.8-0.7,1.8-1.8
				C203,56.1,202.1,55.4,201.1,55.4z"/>
			<path class="st2" d="M205.1,59.8v-5h3.7v0.8h-2.8v4.3H205.1z"/>
			<path class="st2" d="M209.8,59.8v-5h0.8v3.7l3.1-3.7h0.7v5h-0.8v-3.7l-3.1,3.7H209.8z"/>
			<path class="st2" d="M218.5,54.6c0.6,0,1.1,0.1,1.5,0.4v0.8c-0.4-0.3-0.9-0.4-1.4-0.4c-1,0-2,0.5-2,1.9c0,1.3,1,1.9,2,1.9
				c0.5,0,1.1-0.2,1.5-0.4v0.8c-0.5,0.2-1,0.3-1.6,0.3c-1.3,0-2.7-0.8-2.7-2.6C215.7,55.4,217.2,54.6,218.5,54.6z"/>
			<path class="st2" d="M222.6,59.8v-4.3h-1.9v-0.8h4.5v0.8h-1.8v4.3H222.6z"/>
			<path class="st2" d="M226.4,59.8v-5h0.8v3.7l3.1-3.7h0.7v5h-0.8v-3.7l-3.1,3.7H226.4z"/>
		</g>
		<g class="st0">
			<path class="st2" d="M233.5,59.8v-5h0.8v2.1h1l1.6-2.1h1l-1.9,2.5l2.1,2.5h-1l-1.8-2.2h-1v2.2H233.5z"/>
		</g>
		<g class="st0">
			<path class="st2" d="M243.5,59.1c0.1,0,0.3,0,0.4-0.1v0.7c-0.2,0.1-0.4,0.1-0.6,0.1c-0.4,0-0.8-0.2-0.9-0.6
				c-0.5,0.4-1.1,0.7-2,0.7c-0.9,0-1.8-0.5-1.8-1.5c0-1.3,1.2-1.7,2.3-1.7c0.4,0,1,0.1,1.4,0.2v-0.2c0-0.8-0.5-1.3-1.4-1.3
				c-0.8,0-1.4,0.2-1.8,0.4v-0.8c0.4-0.1,1.1-0.3,1.9-0.3c1.3,0,2.2,0.7,2.2,2.1v2C243.2,59,243.3,59.1,243.5,59.1z M240.6,59.2
				c0.6,0,1.3-0.3,1.7-0.7v-0.9c-0.4-0.1-0.9-0.1-1.3-0.1c-0.7,0-1.5,0.2-1.5,1C239.5,58.9,240,59.2,240.6,59.2z"/>
		</g>
		<path class="st3" d="M39.1,39.1"/>
		<line class="st4" x1="20" y1="67.2" x2="58.1" y2="10.9"/>
		<line class="st4" x1="23.2" y1="69.6" x2="61.4" y2="13.1"/>
		<line class="st4" x1="26.9" y1="71.3" x2="64.8" y2="15.2"/>
		<line class="st4" x1="16.3" y1="65.6" x2="54.8" y2="8.6"/>
		<line class="st4" x1="51.3" y1="6.6" x2="13.4" y2="62.7"/>
		<ellipse transform="matrix(0.5602 -0.8284 0.8284 0.5602 -15.2129 49.6359)" class="st5" cx="39.1" cy="39.1" rx="35" ry="35"/>
		<path class="st6" d="M39.2,0v0.8c21.2,0,38.4,17.2,38.4,38.4c0,21.2-17.2,38.4-38.4,38.4c-21.2,0-38.4-17.2-38.4-38.4
			C0.8,17.9,18,0.7,39.2,0.8L39.2,0 M39.2,0C17.6,0,0,17.5,0,39.1s17.5,39.2,39.1,39.2c21.6,0,39.2-17.5,39.2-39.1
			c0-13-6.4-25.2-17.2-32.5C54.6,2.3,47,0,39.2,0z"/>
	</g>
</g>
</svg>
