<svg id="Capa_1" xmlns="http://www.w3.org/2000/svg" viewBox="0 0 512 512"><style>.st0{fill:#fff}</style><path class="st0" d="M259.5 377.7c-5.5 0-10 4.5-10 10v69.6c-1 .5-2.6 1.2-4.6 1.5-5.5.9-9.2 6-8.3 11.4.8 4.9 5 8.5 9.9 8.5.5 0 1 0 1.6-.1 10.7-1.7 21.5-8.3 21.5-19.5v-71.4c-.1-5.5-4.6-10-10.1-10zM221.1 459h-.4c-5.5 0-10 4.5-10 10s4.5 10 10 10h.4c5.5 0 10-4.5 10-10s-4.4-10-10-10z"/><path class="st0" d="M292 239.4h-10.6V10c0-5.5-4.5-10-10-10h-112c-5.5 0-10 4.5-10 10v180.8l-26.1-53 2-1c2.4-1.2 4.2-3.2 5-5.8.9-2.5.7-5.3-.5-7.6l-17.7-35.9c-2.1-4.3-6.9-6.4-11.3-5.3l7.3-14.3c2.3-4.5.9-10-3.4-12.8l-80-53.5c-3-2-6.8-2.2-10-.7-3.2 1.6-5.3 4.8-5.6 8.3l-6.3 96c-.3 5.1 3.2 9.6 8.1 10.5l15.8 2.9c-1.5 1.2-2.6 2.8-3.2 4.6-.9 2.5-.7 5.3.5 7.6l17.7 35.9c1.7 3.5 5.3 5.6 9 5.6 1.5 0 3-.3 4.4-1l2-1 34 69H68.7c-12.2 0-22.2 9.3-22.2 20.7v25.3c0 5.7 2.5 10.9 6.5 14.6V459c0 29.1 26.4 52.8 58.8 52.8h131.9c32.4 0 58.8-23.7 58.8-52.8V303.7c7-3.5 11.7-10.4 11.7-18.3v-25.3c0-11.4-9.9-20.7-22.2-20.7zM169.5 20h92v19.7h-32.9c-5.5 0-10 4.5-10 10s4.5 10 10 10h32.9v19.7h-20c-5.5 0-10 4.5-10 10s4.5 10 10 10h20V119h-20c-5.5 0-10 4.5-10 10s4.5 10 10 10h20v19.7h-32.9c-5.5 0-10 4.5-10 10s4.5 10 10 10h32.9v19.7h-20c-5.5 0-10 4.5-10 10s4.5 10 10 10h20v21.1h-92V20zm-146 77.8l4.6-69.9 58.2 38.9-15.2 29.9-14.7 7.3-32.9-6.2zm33.9 50.3l-2 1-8.8-17.9 52.1-25.7 8.8 17.9-2 1-48.1 23.7zm17.8 13.5l30.3-14.9 44.1 89.3v3.4h-36l-38.4-77.8zm207.3 297.6c0 18.1-17.4 32.8-38.8 32.8H111.8C90.4 492 73 477.3 73 459.2v-153h11V329c0 5.5 4.5 10 10 10s10-4.5 10-10v-22.8h178.5v153zm11.7-173.9c-.2.3-.9.8-2.2.8H68.7c-1.3 0-2-.6-2.2-.9v-25c.2-.3.9-.8 2.2-.8H292c1.3 0 2 .6 2.2.8v25.1z"/><path class="st0" d="M51.9 53.6l-.9-1.7c-2.4-5-8.4-7-13.4-4.5-5 2.4-7 8.4-4.5 13.4l.9 1.8c1.7 3.5 5.3 5.6 9 5.6 1.5 0 3-.3 4.4-1 4.9-2.6 7-8.6 4.5-13.6zm138.8 41.9c-5.5 0-10 4.5-10 10v32.8c0 5.5 4.5 10 10 10s10-4.5 10-10v-32.8c0-5.5-4.5-10-10-10zm0 59.6c-5.5 0-10 4.5-10 10v.4c0 5.5 4.5 10 10 10s10-4.5 10-10v-.4c0-5.5-4.5-10-10-10zM94.1 345.7c-5.5 0-10 4.5-10 10v.4c0 5.5 4.5 10 10 10s10-4.5 10-10v-.4c0-5.5-4.5-10-10-10z"/></svg>