<svg xmlns="http://www.w3.org/2000/svg" viewBox="0 0 385.13 292.81"><defs><style>.cls-1{fill:#fff;}.cls-2{fill:#ff3f40;}</style></defs><title>Ресурс 2</title><g id="Слой_2" data-name="Слой 2"><g id="Слой_1-2" data-name="Слой 1"><path class="cls-1" d="M132.49,92.92h17.07q16.53,0,21.82,1.52t7.11,5a12,12,0,0,1,1.07,7.73q-.75,4.25-5.14,16.72L163.58,154.6q-4.17,11.82-6.68,15.8a19.67,19.67,0,0,1-6.07,6.23,23.59,23.59,0,0,1-7.94,3.15,67.56,67.56,0,0,1-12.57.89H101.54Zm17.52,15-20.35,57.73c3.28,0,5.54-.66,6.76-2s2.87-4.91,4.94-10.76l12-34.09a53.36,53.36,0,0,0,2.32-7.64,2.44,2.44,0,0,0-.87-2.47C154.11,108.2,152.51,107.93,150,107.93Z"/><path class="cls-1" d="M233.29,92.92l-17.9,87.75H192.07l4.34-15.77h-8.16l-6.94,15.77H157.72l42.59-87.75Zm-32,56.42q3.52-14.91,9.52-36.85-12.37,25.2-17.38,36.85Z"/><path class="cls-1" d="M302,92.92l-42.56,87.75H224.81l17.76-87.75h24.06q-8.58,36.26-15.64,61.35,10.71-25.35,19.63-45L278,92.92Z"/><path class="cls-1" d="M328.69,92.92l-30.94,87.75H274.93l30.94-87.75Z"/><path class="cls-1" d="M337.85,92.92h17.07q16.53,0,21.82,1.52t7.11,5a12,12,0,0,1,1.07,7.73q-.75,4.25-5.14,16.72L368.94,154.6q-4.15,11.82-6.68,15.8a19.67,19.67,0,0,1-6.07,6.23,23.59,23.59,0,0,1-7.94,3.15,67.56,67.56,0,0,1-12.57.89H306.9Zm17.52,15L335,165.66q4.92,0,6.77-2t4.93-10.76l12-34.09a53.36,53.36,0,0,0,2.32-7.64,2.44,2.44,0,0,0-.87-2.47C359.47,108.2,357.87,107.93,355.37,107.93Z"/><path class="cls-2" d="M141.19,246.71q-5.62,16-8.72,22.59a39.1,39.1,0,0,1-9,12.13,41.42,41.42,0,0,1-13.66,8.44,46.94,46.94,0,0,1-16.73,2.94A32.88,32.88,0,0,1,78.8,290a15.14,15.14,0,0,1-8-8.34,20.13,20.13,0,0,1-.64-12.09q1.53-6.54,7.29-22.89l6.38-18.11q5.64-16,8.72-22.59a39.25,39.25,0,0,1,9-12.13,41,41,0,0,1,13.67-8.44A46.86,46.86,0,0,1,132,182.5a32.8,32.8,0,0,1,14.29,2.78,15.17,15.17,0,0,1,7.94,8.33,20.17,20.17,0,0,1,.64,12.1q-1.52,6.54-7.29,22.89Zm-15.27-34.79q2.61-7.38,2.52-9.45c-.06-1.37-.94-2.06-2.64-2.06a5.47,5.47,0,0,0-3.89,1.67c-1.16,1.11-2.69,4.39-4.62,9.84L99.86,261.36q-3.26,9.21-3.26,11.38c0,1.43.91,2.15,2.74,2.15a5.12,5.12,0,0,0,4.47-2.48q1.66-2.49,5-11.84Z"/><path class="cls-2" d="M173.31,184.72h46.63l-7.48,21.19H193.37L186.29,226h17l-7.1,20.14h-17l-15.68,44.47H136Z"/><path class="cls-2" d="M226.61,184.72h46.62l-7.47,21.19h-19.1L239.58,226h17l-7.11,20.14h-17L216.8,290.59H189.27Z"/><path class="cls-1" d="M9.83,188.73a3.26,3.26,0,0,1-3.25-3.26V179a3.26,3.26,0,0,1,3.25-3.26H94.22l2.2-6.51H32.61V146.43H94.44v6.51a3.25,3.25,0,0,0,6.5,0v-6.51h3.16l2.19-6.51H32.61v-6.51h75.88l2.19-6.51H32.61v-6.5h80.27l2.19-6.51H32.61v-6.51h84.65l2.2-6.51H32.61V94.36h89l2.2-6.5H32.61V84.6a3.26,3.26,0,0,1,3.25-3.25H168.71a9.76,9.76,0,0,0-9.2-6.51H35.86A9.76,9.76,0,0,0,26.1,84.6v84.6H19.59V75.08L97.69,26.6l78.09,48.48v6.27h6.51V77.9a11.56,11.56,0,0,0,13-11.18,11.55,11.55,0,0,0-5.45-10.09L99.4.49A3.26,3.26,0,0,0,96,.49L5.53,56.62a11.54,11.54,0,0,0,7.56,21.29V169.2H9.83A9.77,9.77,0,0,0,.07,179v6.5a9.76,9.76,0,0,0,9.76,9.77H87.64l2.19-6.51ZM9.18,70.84A5,5,0,0,1,9,62.15L97.69,7.08l88.73,55.07a5,5,0,0,1-5.32,8.56L99.4,20A3.26,3.26,0,0,0,96,20L14.28,70.72A5,5,0,0,1,9.18,70.84Z"/></g></g></svg>