<svg width="28" height="28" viewBox="0 0 28 28" fill="none" xmlns="http://www.w3.org/2000/svg">
<g clip-path="url(#clip0)">
<path d="M26.1237 26.8848L24.675 7.80087C24.6409 7.34482 24.2601 6.99207 23.8023 6.99207H4.17919C3.7214 6.99207 3.34063 7.34482 3.30649 7.80174L1.84557 27.059C1.82719 27.3014 1.91122 27.5413 2.07666 27.7198C2.24209 27.8984 2.47493 27.9999 2.71827 27.9999H25.2641C25.2694 27.9999 25.2755 27.9999 25.2816 27.9999C25.7648 27.9999 26.1569 27.6078 26.1569 27.1237C26.1569 27.0415 26.1456 26.9609 26.1237 26.8848ZM3.66187 26.2493L4.99062 8.74272H22.9909L24.3196 26.2493H3.66187Z" fill="#4E4D4D"/>
<path d="M13.9907 0C10.1297 0 6.9881 3.14243 6.9881 7.00438V10.4934C6.9881 10.9766 7.38025 11.3688 7.86343 11.3688C8.34661 11.3688 8.73876 10.9766 8.73876 10.4934V7.00438C8.73876 4.10704 11.0943 1.75066 13.9907 1.75066C16.8872 1.75066 19.2427 4.10704 19.2427 7.00438V10.4934C19.2427 10.9766 19.6348 11.3688 20.118 11.3688C20.6012 11.3688 20.9934 10.9766 20.9934 10.4934V7.00438C20.9934 3.14243 17.8518 0 13.9907 0Z" fill="#4E4D4D"/>
</g>
<defs>
<clipPath id="clip0">
<rect width="28" height="28" fill="white"/>
</clipPath>
</defs>
</svg>
