<svg width="9" height="12" viewBox="0 0 9 12" fill="none" xmlns="http://www.w3.org/2000/svg">
<path d="M2.58623 1.09091C2.58623 0.733185 2.86078 0.471744 3.21257 0.471744H5.78735C6.13903 0.471744 6.41357 0.733185 6.41357 1.09091V1.76904H6.87749V1.09091C6.87749 0.473126 6.39488 0 5.78735 0H3.21257C2.60504 0 2.12231 0.473126 2.12231 1.09091V1.76904H2.58623V1.09091Z" fill="#4B392C"/>
<path d="M1.75738 12H7.24321C7.77214 12 8.1826 11.5269 8.1826 10.9386V3.65601H0.817871V10.9386C0.817871 11.5269 1.22833 12 1.75738 12V12ZM5.97898 4.78227C5.97898 4.65201 6.08284 4.5464 6.21094 4.5464C6.33904 4.5464 6.4429 4.65201 6.4429 4.78227V10.3548C6.4429 10.485 6.33904 10.5906 6.21094 10.5906C6.08284 10.5906 5.97898 10.485 5.97898 10.3548V4.78227ZM4.26827 4.78227C4.26827 4.65201 4.37214 4.5464 4.50023 4.5464C4.62833 4.5464 4.73219 4.65201 4.73219 4.78227V10.3548C4.73219 10.485 4.62833 10.5906 4.50023 10.5906C4.37214 10.5906 4.26827 10.485 4.26827 10.3548V4.78227ZM2.55757 4.78227C2.55757 4.65201 2.66143 4.5464 2.78953 4.5464C2.91763 4.5464 3.02149 4.65201 3.02149 4.78227V10.3548C3.02149 10.485 2.91763 10.5906 2.78953 10.5906C2.66143 10.5906 2.55757 10.485 2.55757 10.3548V4.78227Z" fill="#4B392C"/>
<path d="M0.5799 3.18424H8.4201C8.7404 3.18424 9 2.92027 9 2.59456C9 2.26886 8.7404 2.00488 8.4201 2.00488H0.5799C0.259596 2.00488 0 2.26886 0 2.59456C0 2.92027 0.259596 3.18424 0.5799 3.18424Z" fill="#4B392C"/>
</svg>
