<svg width="29" height="29" viewBox="0 0 29 29" fill="none" xmlns="http://www.w3.org/2000/svg">
<path fill-rule="evenodd" clip-rule="evenodd" d="M27.5146 5.73205L28.9401 8.58266C29.0279 8.75819 29.0186 8.96674 28.9154 9.13372C28.8122 9.30075 28.6299 9.40236 28.4336 9.40236H27.3007C26.3638 9.40236 25.6015 10.1646 25.6015 11.1016V14.5C25.6015 19.1054 21.5552 22.9961 16.7656 22.9961H12.6096L10.5166 27.9379C10.1665 28.8044 9.17767 29.2252 8.31022 28.8786C8.29645 28.8731 8.28292 28.867 8.26961 28.8605L5.27032 27.3791C4.16152 26.9175 3.86971 25.4811 4.70912 24.6228L10.1569 18.456C7.42277 18.3361 4.92696 16.8813 3.47775 14.5629L0.0861127 9.13615C-0.0230338 8.96159 -0.0288111 8.74154 0.0709897 8.56142C0.17079 8.3813 0.36048 8.26955 0.566368 8.26955H4.95772C5.83072 8.26955 6.71188 8.19847 7.57678 8.05823C8.01823 7.98686 8.46179 7.89538 8.90166 7.78607C8.48195 6.43627 8.26949 5.03736 8.26949 3.61879V0.566428C8.26949 0.316869 8.4329 0.0966503 8.67175 0.0243202C8.91066 -0.0479532 9.16872 0.0445976 9.30715 0.252242C10.8514 2.56856 12.9936 4.25611 15.1846 4.88216L18.0466 5.70005C18.7673 5.9056 19.3928 6.35544 19.8193 6.96183L21.4192 5.1614C22.0976 4.26982 23.1685 3.7383 24.2892 3.7383C25.6642 3.7383 26.9 4.50227 27.5146 5.73205ZM14.8733 5.97142C12.8944 5.40592 10.9632 4.08279 9.4023 2.25437V3.61879C9.4023 4.93155 9.60038 6.22596 9.99125 7.47443C10.3252 7.3663 10.5965 7.27981 11.0217 7.21088C12.3746 6.99191 13.7381 7.26531 14.8837 7.95265L17.5286 9.53955L19.0342 7.84537C18.7643 7.33238 18.2939 6.94864 17.7357 6.78936L14.8733 5.97142ZM24.4687 11.1016C24.4687 9.54 25.7392 8.26955 27.3007 8.26955H27.517L26.5013 6.23859C26.0798 5.39504 25.2322 4.87111 24.2892 4.87111C23.515 4.87111 22.7754 5.24104 22.3108 5.86068C22.3093 5.86266 22.3085 5.86379 22.3077 5.86491C22.2945 5.8841 22.2772 5.90046 18.5171 10.1326L19.3227 10.6159C19.5909 10.7769 19.6779 11.1249 19.5169 11.3931C19.3559 11.6613 19.0079 11.7482 18.7398 11.5872L14.301 8.92403C13.3779 8.3702 12.2789 8.15497 11.2029 8.32914C10.9187 8.37518 10.6258 8.46533 10.265 8.57635C9.6857 8.75463 8.93147 8.98674 7.75786 9.17648C6.83343 9.32635 5.89127 9.40236 4.95772 9.40236H1.58834L3.07107 11.775L4.89677 12.4872C7.13708 13.3613 9.95953 13.0704 11.9201 11.7631C12.1804 11.5896 12.532 11.6599 12.7056 11.9202C12.8791 12.1805 12.8088 12.5322 12.5485 12.7057C10.3164 14.1939 7.07828 14.5544 4.48505 13.5426L4.07616 13.383L4.43832 13.9625C5.7572 16.0724 8.02985 17.3321 10.5176 17.3321C10.5631 17.3243 10.6585 17.3265 10.7955 17.3297C11.6607 17.3499 14.1886 17.4088 16.3651 15.2322C16.5863 15.011 16.945 15.011 17.1661 15.2322C17.3873 15.4535 17.3873 15.8121 17.1661 16.0333C15.6899 17.5096 13.7459 18.3639 11.6682 18.4563C9.97793 20.3695 8.72738 21.7851 7.81272 22.8206C6.05315 24.8125 5.53658 25.3972 5.52373 25.4101C5.23548 25.6983 5.33506 26.1851 5.71353 26.3364C5.71595 26.3374 5.71745 26.3379 5.71895 26.3385C5.74104 26.3466 5.76163 26.3589 8.74799 27.8332C9.03799 27.9385 9.35478 27.7927 9.46716 27.5114L9.47158 27.5007L11.3219 23.1319C10.0183 23.5297 9.52846 24.5627 9.38394 24.8675C9.36395 24.9097 9.35056 24.9379 9.34255 24.9486C9.2027 25.2283 8.86246 25.3418 8.58266 25.2019C8.30285 25.062 8.1894 24.7218 8.3293 24.442L8.44882 24.203C9.17002 22.7599 10.6206 21.8633 12.2343 21.8633H16.7656C20.9411 21.8633 24.4687 18.4913 24.4687 14.5V11.1016ZM24.468 6.57068C24.468 6.25802 24.7218 6.00427 25.0344 6.00427C25.3471 6.00427 25.6008 6.25802 25.6008 6.57068C25.6008 6.88334 25.3471 7.13709 25.0344 7.13709C24.7218 7.13709 24.468 6.88334 24.468 6.57068ZM13.9329 20.1644C13.9329 19.8518 14.1866 19.598 14.4993 19.598C14.8119 19.598 15.0657 19.8518 15.0657 20.1644C15.0657 20.4771 14.8119 20.7308 14.4993 20.7308C14.1866 20.7308 13.9329 20.4771 13.9329 20.1644ZM22.429 13.934C22.1161 13.934 21.8625 14.1875 21.8625 14.5004C21.8625 17.3112 19.5757 19.598 16.7649 19.598C16.4521 19.598 16.1985 19.8516 16.1985 20.1644C16.1985 20.4773 16.4521 20.7308 16.7649 20.7308C20.2004 20.7308 22.9954 17.9358 22.9954 14.5004C22.9954 14.1875 22.7418 13.934 22.429 13.934Z" fill="white"/>
</svg>
