<svg width="21" height="20" viewBox="0 0 21 20" fill="none" xmlns="http://www.w3.org/2000/svg">
<path d="M14.9805 -0.00012207H6.01913C2.97588 -0.00012207 0.5 2.47588 0.5 5.51912V14.4805C0.5 17.5239 2.97588 19.9998 6.01913 19.9998H14.9805C18.024 19.9998 20.4999 17.5238 20.4999 14.4805V5.51912C20.5 2.47588 18.024 -0.00012207 14.9805 -0.00012207ZM18.7255 14.4805C18.7255 16.5454 17.0455 18.2253 14.9806 18.2253H6.01913C3.95433 18.2254 2.27449 16.5454 2.27449 14.4805V5.51912C2.27449 3.45433 3.95433 1.77436 6.01913 1.77436H14.9805C17.0454 1.77436 18.7254 3.45433 18.7254 5.51912V14.4805H18.7255Z" fill="#4B392C"/>
<path d="M10.4999 4.84668C7.65824 4.84668 5.34644 7.15848 5.34644 10.0001C5.34644 12.8417 7.65824 15.1534 10.4999 15.1534C13.3416 15.1534 15.6534 12.8417 15.6534 10.0001C15.6534 7.15848 13.3416 4.84668 10.4999 4.84668ZM10.4999 13.3788C8.63681 13.3788 7.12092 11.8631 7.12092 10C7.12092 8.13681 8.63669 6.62105 10.4999 6.62105C12.3631 6.62105 13.8789 8.13681 13.8789 10C13.8789 11.8631 12.363 13.3788 10.4999 13.3788Z" fill="#4B392C"/>
<path d="M15.8695 3.34192C15.5276 3.34192 15.1918 3.48033 14.9503 3.72284C14.7077 3.96417 14.5682 4.30014 14.5682 4.64321C14.5682 4.98521 14.7078 5.32106 14.9503 5.56358C15.1917 5.80491 15.5276 5.9445 15.8695 5.9445C16.2126 5.9445 16.5474 5.80491 16.7899 5.56358C17.0324 5.32106 17.1708 4.98509 17.1708 4.64321C17.1708 4.30014 17.0324 3.96417 16.7899 3.72284C16.5486 3.48033 16.2126 3.34192 15.8695 3.34192Z" fill="#4B392C"/>
</svg>
