<svg width="40" height="40" viewBox="0 0 40 40" fill="none" xmlns="http://www.w3.org/2000/svg">
<path d="M32.8205 23.4746C32.6226 23.1501 32.1892 23.0632 31.8529 23.2803C31.5166 23.4974 31.4046 23.9363 31.6027 24.2607C32.9665 26.4934 33.002 28.0462 32.5966 28.3926C31.7862 29.0848 29.697 29.6231 27.5159 29.7016C25.1489 29.7866 23.1137 29.3357 22.2043 28.5247C20.7593 27.2355 21.3443 21.8794 22.1115 18.4561L23.1048 17.4625C25.2643 18.2201 27.303 19.4745 29.0236 21.1085C29.2984 21.3694 29.7459 21.3457 30.023 21.0556C30.3002 20.7654 30.3017 20.3168 30.0273 20.0575C28.3294 18.445 26.34 17.1753 24.2234 16.3437L24.7332 15.8337L29.8332 15.2586C30.2228 15.2147 30.5212 14.8646 30.4995 14.4768C30.4779 14.089 30.1445 13.8102 29.7547 13.8542L25.2321 14.3642L25.7407 9.8415C25.7846 9.45162 25.5056 9.11826 25.1179 9.09686C24.7301 9.07532 24.3802 9.37379 24.3363 9.76348L23.7627 14.8636L23.2544 15.3721C22.0384 12.2669 20.1367 10.0703 18.6862 8.73175C16.7452 6.94073 14.5319 5.70361 12.7655 5.42266C11.2964 5.1888 10.5317 5.6741 10.1489 6.12246C9.03034 7.43247 8.55416 10.0773 8.4815 12.1157C8.43887 13.3122 8.47901 16.0983 9.61289 17.865C7.42878 20.3735 7.86474 22.7509 8.17281 23.6937C8.40753 24.4141 8.7859 25.0492 9.26702 25.5301C10.2425 26.5053 11.731 26.8144 13.1154 26.4846C12.786 27.8691 13.0955 29.3575 14.071 30.3327C14.655 30.9165 15.4712 31.3502 16.3694 31.5539C16.37 31.5541 16.3707 31.5542 16.3714 31.5544C16.3724 31.5546 16.3735 31.5549 16.3745 31.5551C17.4646 31.8012 19.5467 31.8932 21.7362 29.9847C23.5033 31.1179 26.2893 31.1572 27.4856 31.1141C29.524 31.0409 32.1687 30.5639 33.4783 29.4449C34.6898 28.4099 34.4376 26.1222 32.8205 23.4746ZM11.0724 17.3962C10.2612 16.4871 9.80964 14.4519 9.89397 12.0849C9.97173 9.9038 10.5094 7.81429 11.2014 7.00389C11.3833 6.79091 11.856 6.72172 12.4661 6.81871C13.9598 7.05631 15.9639 8.19689 17.696 9.7953C19.126 11.1146 21.0271 13.3305 22.1343 16.4924L21.1411 17.4859C17.7185 18.2543 12.3619 18.8437 11.0724 17.3962ZM9.35821 22.4741C9.23851 21.5592 9.39266 20.2613 10.5709 18.8573C11.6591 19.5596 13.4815 19.8161 16.0985 19.6369L9.35821 22.4741ZM14.3177 24.3113C13.2153 25.4141 11.2976 25.5051 10.2945 24.5022C10.1005 24.3083 9.92663 24.0672 9.78134 23.7977L18.5001 20.1277L14.3177 24.3114L14.3177 24.3113ZM15.0985 29.3048C14.0953 28.3019 14.1858 26.3843 15.2882 25.2816L19.6541 20.9143L16.1585 29.986C15.7456 29.8176 15.3758 29.582 15.0985 29.3048ZM17.5349 30.2686L19.9305 24.0516C19.8231 26.3746 20.0912 28.0169 20.7433 29.0266C19.5201 30.0493 18.374 30.2867 17.5349 30.2686Z" fill="white"/>
</svg>
