<svg width="72" height="71" viewBox="0 0 72 71" fill="none" xmlns="http://www.w3.org/2000/svg">
<g clip-path="url(#clip0)">
<path d="M55.6383 41.3201C55.333 40.8338 54.691 40.6875 54.2049 40.993C53.7187 41.2985 53.5723 41.9403 53.8778 42.4264C55.981 45.7726 56.0988 48.0613 55.5163 48.5542C54.352 49.5396 51.2975 50.2441 48.0883 50.2675C44.6055 50.2928 41.5887 49.5426 40.215 48.3098C38.0322 46.3498 38.6675 38.4856 39.6529 33.4759L41.0739 32.0545C44.2867 33.2616 47.3426 35.1952 49.9458 37.6747C50.3616 38.0706 51.0197 38.0546 51.4156 37.6389C51.8116 37.2232 51.7949 36.5626 51.3799 36.1691C48.8108 33.7223 45.8269 31.7681 42.6742 30.4538L43.4036 29.7242L50.8911 29.0927C51.4631 29.0444 51.8879 28.5414 51.8395 27.9693C51.7913 27.3973 51.2884 26.9725 50.7162 27.0208L44.0763 27.5809L44.6343 20.941C44.6825 20.3686 44.2575 19.8658 43.6855 19.8179C43.1135 19.7698 42.6106 20.1946 42.5624 20.7667L41.9332 28.2543L41.2059 28.9818C39.2837 24.3568 36.3899 21.0412 34.1968 19.0083C31.2623 16.2884 27.95 14.3727 25.3363 13.8843C23.1626 13.4777 22.0568 14.1602 21.5119 14.8044C19.9197 16.6866 19.3301 20.5621 19.3092 23.5613C19.297 25.3218 19.4738 29.4271 21.2186 32.0772C18.1076 35.6796 18.8502 39.1997 19.3438 40.6014C19.7199 41.6723 20.304 42.6237 21.033 43.3524C22.511 44.83 24.7165 45.3481 26.7417 44.9208C26.315 46.9461 26.8337 49.1514 28.3118 50.629C29.1966 51.5135 30.4171 52.1869 31.7487 52.5249C31.7496 52.5252 31.7507 52.5254 31.7516 52.5256C31.7532 52.526 31.7547 52.5264 31.7562 52.5268C33.3723 52.9354 36.4429 53.1588 39.5873 50.4404C42.2379 52.1841 46.343 52.3596 48.1033 52.3468C51.1025 52.325 54.9778 51.7342 56.8595 50.1414C58.6001 48.6681 58.132 45.288 55.6383 41.3201ZM23.3484 31.4483C22.1152 30.075 21.3641 27.0585 21.3883 23.5757C21.4107 20.3664 22.1143 17.3115 23.0994 16.1471C23.3582 15.8411 24.0516 15.7592 24.9543 15.9278C27.1645 16.3409 30.1645 18.1055 32.7833 20.533C34.9452 22.5367 37.8391 25.8807 39.6034 30.5845L38.1825 32.0059C33.1739 32.9931 25.3089 33.6348 23.3484 31.4483ZM21.0382 38.855C20.8232 37.5025 20.9954 35.5974 22.6715 33.5792C24.304 34.6596 26.9991 35.1143 30.8462 34.9611L21.0382 38.855ZM28.4207 41.7707C26.8435 43.3483 24.0229 43.4013 22.503 41.8818C22.2091 41.588 21.9427 41.2255 21.7174 40.8225L34.4042 35.7855L28.4207 41.7707L28.4207 41.7707ZM29.7818 49.1584C28.2618 47.6389 28.314 44.8184 29.8912 43.2407L36.1373 36.9927L31.3719 50.2066C30.7566 49.9411 30.2019 49.5784 29.7818 49.1584ZM33.4111 50.681L36.6769 41.6252C36.6168 45.0423 37.0811 47.4725 38.0843 48.9872C36.3259 50.4418 34.6478 50.7431 33.4111 50.681Z" fill="#7F675B" stroke="white" stroke-width="0.7"/>
<path d="M53.938 38.9445C53.8547 38.8409 53.77 38.7374 53.6842 38.6339C53.3174 38.1924 52.6621 38.1312 52.2202 38.4978C51.7784 38.8644 51.7174 39.5199 52.084 39.9618C52.1632 40.0571 52.2412 40.1526 52.3181 40.2481C52.3421 40.278 52.3673 40.306 52.3938 40.3325C52.7643 40.7029 53.3623 40.7422 53.7798 40.4062C54.2271 40.0462 54.2979 39.3917 53.938 38.9445Z" fill="#816C61"/>
</g>
<defs>
<clipPath id="clip0">
<rect x="36.299" width="50" height="50" transform="rotate(44.9913 36.299 0)" fill="white"/>
</clipPath>
</defs>
</svg>
