<svg width="31" height="31" viewBox="0 0 31 31" fill="none" xmlns="http://www.w3.org/2000/svg">
<path fill-rule="evenodd" clip-rule="evenodd" d="M18.38 8.21565C18.1519 8.18247 17.9624 8.02268 17.8912 7.80351C17.8199 7.58433 17.8794 7.34372 18.0444 7.18284L20.7984 4.49839L20.1482 0.707872C20.1092 0.480702 20.2026 0.25117 20.3891 0.115727C20.4944 0.0390751 20.6194 2.19274e-05 20.7449 2.19274e-05C20.8413 2.19274e-05 20.938 0.0230302 21.0266 0.06953L24.4307 1.85923L27.8349 0.06953C28.0388 -0.0376374 28.286 -0.0198977 28.4725 0.115666C28.659 0.251109 28.7523 0.480641 28.7133 0.707811L28.0632 4.49833L30.8172 7.18284C30.9822 7.34372 31.0416 7.58433 30.9704 7.80351C30.8992 8.02268 30.7097 8.18247 30.4816 8.21565L26.6758 8.76862L24.9737 12.2174C24.8717 12.4241 24.6612 12.5549 24.4308 12.5549C24.2004 12.5549 23.9898 12.4241 23.8879 12.2174L22.1859 8.76862L18.38 8.21565ZM22.0456 4.60743C22.0793 4.80385 22.0142 5.00426 21.8714 5.14339L19.7681 7.19368L22.676 7.61624C22.8728 7.64524 23.0428 7.76893 23.1308 7.9473L24.4307 10.5813L25.7307 7.94724C25.8189 7.76857 25.9893 7.64469 26.1865 7.61599L29.0934 7.19362L26.99 5.14333C26.8473 5.0042 26.7821 4.80385 26.8159 4.60737L27.3124 1.71228L24.7124 3.07918C24.6243 3.12556 24.5275 3.14875 24.4307 3.14875C24.3339 3.14875 24.2372 3.12556 24.149 3.07924L21.549 1.71234L22.0456 4.60743ZM3.529 29.3547C3.24686 29.5341 2.87262 29.4509 2.69322 29.1687C2.51376 28.8866 2.59707 28.5124 2.87922 28.3329C9.9192 23.8558 15.8595 17.6782 20.0579 10.4681C20.1703 10.275 20.3732 10.1672 20.5816 10.1672C20.685 10.1672 20.7899 10.1938 20.8857 10.2496C21.1747 10.4179 21.2725 10.7885 21.1043 11.0775C18.9555 14.7677 16.365 18.1992 13.4046 21.2766C10.4489 24.3492 7.12625 27.067 3.529 29.3547ZM10.4039 30.9652C10.5632 31.0214 10.745 31.0111 10.9035 30.9214L10.9101 30.9177C11.102 30.8092 11.212 30.6119 11.2176 30.4066C16.0305 26.7481 19.8731 21.9217 22.3578 16.4039L22.8535 15.3029C22.9908 14.998 22.855 14.6396 22.55 14.5022C22.4693 14.4659 22.3849 14.4487 22.3018 14.4487C22.0709 14.4487 21.8503 14.5815 21.7494 14.8058L21.2536 15.9067C18.748 21.471 14.814 26.3079 9.87663 29.8944C9.60611 30.091 9.54611 30.4696 9.74264 30.7402C9.89734 30.9532 10.165 31.0357 10.4039 30.9652ZM26.7027 10.2871C26.9578 10.5034 27.3399 10.4719 27.5561 10.2168L27.5664 10.2046C27.7826 9.94948 27.7511 9.56743 27.4961 9.35115C27.3823 9.25464 27.2433 9.20754 27.1049 9.20754C26.9332 9.20754 26.7625 9.2802 26.6428 9.42145L26.6324 9.43368C26.4162 9.68876 26.4476 10.0708 26.7027 10.2871ZM0.907398 23.7829C0.617562 23.9496 0.247381 23.8498 0.0806967 23.5599C-0.0859878 23.27 0.0138524 22.8999 0.303688 22.7332L1.44251 22.0782C6.56795 19.1305 11.1929 15.4264 15.1889 11.0688C15.3083 10.9386 15.4716 10.8725 15.6353 10.8725C15.7815 10.8725 15.9281 10.9251 16.0443 11.0318C16.2907 11.2577 16.3073 11.6408 16.0813 11.8872C12.0015 16.3364 7.27937 20.1183 2.04622 23.128L0.907398 23.7829Z" fill="white"/>
</svg>
