<svg width="19" height="19" viewBox="0 0 19 19" fill="none" xmlns="http://www.w3.org/2000/svg">
<g clip-path="url(#clip0)">
<path d="M12.6373 11.754L13.9459 10.4454L19.0368 15.5364L17.7283 16.8449L12.6373 11.754Z" fill="#FEDAD5"/>
<path d="M2.15491 1.27143L3.46345 -0.0371094L8.55426 5.05384L7.24571 6.36238L2.15491 1.27143Z" fill="#FEDAD5"/>
<path d="M11.834 12.5254C10.8276 11.8527 9.85098 11.0453 8.92585 10.1201C7.99956 9.19385 7.19243 8.21741 6.52026 7.21183L1.36741 2.05884L0.849037 2.57721L0.833816 2.59316C-0.154802 3.66295 -0.225687 5.46957 0.634208 7.6799C1.44105 9.75397 2.98964 12.0004 4.99457 14.0053C7.02355 16.0343 9.29332 17.5917 11.3859 18.3909C12.386 18.7729 13.3003 18.9629 14.0994 18.9629C15.0891 18.9629 15.9023 18.6713 16.482 18.0916L16.9411 17.6325L11.834 12.5254Z" fill="#FEDAD5"/>
</g>
<defs>
<clipPath id="clip0">
<rect width="19" height="19" fill="white"/>
</clipPath>
</defs>
</svg>
