<svg width="19" height="19" viewBox="0 0 19 19" fill="none" xmlns="http://www.w3.org/2000/svg">
<path d="M9.49965 0C5.64299 0 2.505 3.13799 2.505 6.99504C2.505 8.00111 2.71092 8.96167 3.11674 9.8503C4.86559 13.6772 8.21864 17.7176 9.20487 18.8647C9.27876 18.9504 9.38649 18.9998 9.49985 18.9998C9.61321 18.9998 9.72093 18.9504 9.79482 18.8647C10.7807 17.7178 14.1337 13.6776 15.8832 9.8503C16.2892 8.96167 16.4949 8.00111 16.4949 6.99504C16.4945 3.13799 13.3565 0 9.49965 0ZM9.49965 10.6283C7.49627 10.6283 5.86622 8.99823 5.86622 6.99484C5.86622 4.99126 7.49627 3.36121 9.49965 3.36121C11.503 3.36121 13.1331 4.99126 13.1331 6.99484C13.1333 8.99823 11.5032 10.6283 9.49965 10.6283Z" fill="#FEDAD5"/>
</svg>
