<svg width="24" height="21" viewBox="0 0 24 21" fill="none" xmlns="http://www.w3.org/2000/svg">
<path fill-rule="evenodd" clip-rule="evenodd" d="M0.360332 15.8799C0.108475 15.9396 -0.0470546 16.1912 0.0128979 16.4419C0.0731786 16.6939 0.32691 16.8472 0.577455 16.7877L3.05642 16.2002C4.89624 19.1697 8.28916 21 12 21C12.9668 21 13.9239 20.876 14.8447 20.6315C15.0948 20.5651 15.2435 20.3094 15.1768 20.0603C15.11 19.8113 14.8531 19.6634 14.603 19.7298C13.761 19.9534 12.8852 20.0668 12 20.0668C8.72514 20.0668 5.72658 18.5122 4.02269 15.9712L6.48365 15.3879C6.7355 15.3282 6.89103 15.0766 6.83108 14.8259C6.77113 14.5752 6.51833 14.4202 6.26652 14.48L3.52629 15.1295C2.98132 14.0701 2.67453 12.9057 2.63098 11.7265L6.26652 12.5882C6.51772 12.6478 6.77099 12.4937 6.83108 12.2423C6.89103 11.9916 6.7355 11.74 6.48365 11.6803L2.65315 10.7724C2.74146 9.68877 3.04657 8.64527 3.56364 7.66556C3.874 7.07767 4.03136 6.3804 4.03136 5.59322V1.86868C4.03136 1.53906 4.20053 1.24047 4.48398 1.06997C4.76743 0.899466 5.11172 0.889154 5.40614 1.04314L9.27142 3.04819C9.37224 3.1005 9.48882 3.1145 9.5993 3.08767C10.379 2.89804 11.1867 2.80187 12 2.80187C12.8134 2.80187 13.6211 2.89804 14.4008 3.08767C14.5113 3.1145 14.6278 3.1005 14.7286 3.04819L18.5953 1.04244C18.8884 0.889154 19.2327 0.899466 19.5161 1.06997C19.7995 1.24047 19.9687 1.53906 19.9687 1.86868V5.59322C19.9687 6.38045 20.1261 7.07767 20.4364 7.66556C20.9533 8.64495 21.2585 9.68807 21.3469 10.7725L17.5164 11.6804C17.2646 11.7401 17.109 11.9917 17.169 12.2424C17.229 12.4934 17.4821 12.6479 17.7335 12.5882L21.3691 11.7266C21.3255 12.9057 21.0187 14.0701 20.4738 15.1296L17.7335 14.4801C17.4818 14.4205 17.2289 14.5753 17.169 14.8259C17.109 15.0766 17.2646 15.3283 17.5164 15.3879L19.9773 15.9712C19.4869 16.7017 18.8827 17.3587 18.175 17.9297C17.9739 18.0919 17.943 18.3858 18.106 18.586C18.269 18.7862 18.5642 18.8169 18.7653 18.6546C19.6387 17.95 20.3697 17.1253 20.9431 16.2001L23.4226 16.7878C23.6738 16.8474 23.9271 16.6933 23.9872 16.4419C24.0471 16.1912 23.8916 15.9396 23.6397 15.8799L21.4102 15.3515C21.9917 14.1481 22.3009 12.8308 22.3113 11.5032L23.6398 11.1883C23.8916 11.1287 24.0472 10.8771 23.9872 10.6263C23.9273 10.3757 23.6746 10.2207 23.4227 10.2805L22.2687 10.554C22.1558 9.39583 21.8201 8.28052 21.2664 7.23142C21.0274 6.7788 20.9063 6.22759 20.9063 5.59322V1.86868C20.9063 1.20939 20.5679 0.612216 20.001 0.271259C19.4342 -0.0697452 18.7457 -0.0902763 18.1608 0.215545L14.4499 2.14044C13.6514 1.96004 12.8282 1.86868 12 1.86868C11.1719 1.86868 10.3486 1.96004 9.55013 2.14044L5.84072 0.216245C5.25441 -0.0902764 4.56596 -0.0697452 3.99906 0.271259C3.43226 0.612216 3.09382 1.20939 3.09382 1.86868V5.59322C3.09382 6.22763 2.9727 6.7788 2.73368 7.23147C2.17981 8.28084 1.844 9.39648 1.73127 10.554L0.577408 10.2805C0.325692 10.2208 0.0728036 10.3757 0.0128511 10.6263C-0.0471015 10.8771 0.108428 11.1287 0.360285 11.1883L1.68876 11.5032C1.69912 12.8308 2.00839 14.1481 2.58983 15.3515L0.360332 15.8799ZM7.97827 9.80119C8.23715 9.80119 8.44702 9.59228 8.44702 9.33457C8.44702 9.07686 8.23715 8.86795 7.97827 8.86795C7.71939 8.86795 7.50952 9.07686 7.50952 9.33457C7.50952 9.59228 7.71939 9.80119 7.97827 9.80119ZM16.2188 9.80119C16.4776 9.80119 16.6875 9.59228 16.6875 9.33457C16.6875 9.07686 16.4776 8.86795 16.2188 8.86795C15.9599 8.86795 15.75 9.07686 15.75 9.33457C15.75 9.59228 15.9599 9.80119 16.2188 9.80119ZM9.1875 15.8672H10.5937C11.0452 15.8672 11.423 15.5478 11.5115 15.1241L10.7456 14.4381C10.3512 14.0846 10.1249 13.5789 10.1249 13.0507V12.8342C10.1249 12.7104 10.1743 12.5917 10.2622 12.5042C11.2204 11.5505 12.7795 11.5505 13.7377 12.5042C13.8255 12.5917 13.8749 12.7104 13.8749 12.8342V13.0507C13.8749 13.5789 13.6488 14.0846 13.2544 14.438L12.4884 15.1241C12.5769 15.5478 12.9548 15.8672 13.4062 15.8672H14.8124C15.0713 15.8672 15.2812 16.0761 15.2812 16.3338C15.2812 16.5915 15.0713 16.8004 14.8124 16.8004H13.4062C12.8466 16.8004 12.3438 16.5548 12 16.1665C11.6561 16.5548 11.1533 16.8004 10.5937 16.8004H9.1875C8.92861 16.8004 8.71875 16.5915 8.71875 16.3338C8.71875 16.0761 8.92861 15.8672 9.1875 15.8672ZM11.0625 13.0429V13.0507C11.0625 13.3148 11.1756 13.5677 11.3728 13.7444L12 14.3062L12.6272 13.7443C12.8243 13.5677 12.9375 13.3148 12.9375 13.0507V13.0429C12.3891 12.6146 11.6108 12.6146 11.0625 13.0429ZM5.90625 5.13503V3.73516C5.90625 3.47745 6.11611 3.26854 6.375 3.26854C6.63389 3.26854 6.84375 3.47745 6.84375 3.73516V5.13503C6.84375 5.39275 6.63389 5.60165 6.375 5.60165C6.11611 5.60165 5.90625 5.39275 5.90625 5.13503ZM17.625 5.60165C17.8839 5.60165 18.0938 5.39275 18.0938 5.13503V3.73516C18.0938 3.47745 17.8839 3.26854 17.625 3.26854C17.3661 3.26854 17.1563 3.47745 17.1563 3.73516V5.13503C17.1563 5.39275 17.3661 5.60165 17.625 5.60165ZM17.1563 19.4134C17.1563 19.6711 16.9464 19.88 16.6875 19.88C16.4286 19.88 16.2188 19.6711 16.2188 19.4134C16.2188 19.1557 16.4286 18.9468 16.6875 18.9468C16.9464 18.9468 17.1563 19.1557 17.1563 19.4134Z" fill="white"/>
</svg>
