<svg width="65" height="65" viewBox="0 0 65 65" fill="none" xmlns="http://www.w3.org/2000/svg">
<path d="M60.4497 36.4277L58.7665 29.6947C59.2267 29.597 59.572 29.1887 59.572 28.6995V27.614C59.572 25.257 57.6544 23.3395 55.2975 23.3395H47.6305V21.1004C47.6305 19.9405 46.687 18.997 45.5272 18.997H31.2711L39.9344 15.5317C40.4563 15.323 40.7101 14.7306 40.5013 14.2087C40.2926 13.687 39.7007 13.4329 39.1784 13.6418L32.085 16.479C34.2465 15.0922 36.385 13.5658 37.1992 12.4984C38.7842 10.4203 38.3828 7.44023 36.3047 5.85522C34.2266 4.27008 31.2465 4.67164 29.6615 6.74973C28.5034 8.26835 26.9754 12.5354 25.9864 15.5423C24.9974 12.5356 23.4694 8.26835 22.3114 6.74973C20.7265 4.67164 17.7463 4.27034 15.6682 5.85522C13.5901 7.4401 13.1888 10.4202 14.7737 12.4984C15.5878 13.566 17.7262 15.0922 19.8878 16.479L12.7945 13.6418C12.2723 13.4327 11.6802 13.6868 11.4715 14.2087C11.2626 14.7306 11.5166 15.323 12.0385 15.5317L20.7017 18.997H6.44566C5.28582 18.997 4.3423 19.9405 4.3423 21.1004V39.5556C4.3423 40.1176 4.79794 40.5733 5.36009 40.5733C5.92211 40.5733 6.37787 40.1177 6.37787 39.5556V21.1004C6.37787 21.0629 6.40821 21.0326 6.44566 21.0326H45.527C45.5645 21.0326 45.5948 21.0629 45.5948 21.1004V39.5558C45.5948 40.1178 46.0505 40.5736 46.6126 40.5736C47.1746 40.5736 47.6304 40.118 47.6304 39.5558V38.4021H59.6358C59.637 38.4021 59.6379 38.4023 59.639 38.4023C59.6402 38.4023 59.6412 38.4022 59.6423 38.4022C61.1196 38.4033 62.3738 39.373 62.8045 40.7091H59.6398C59.0778 40.7091 58.622 41.1647 58.622 41.7268V43.898C58.622 45.6564 60.0525 47.0869 61.8109 47.0869H62.9644V51.565H60.3032C59.429 49.0409 57.0295 47.2225 54.2118 47.2225C51.3941 47.2225 48.9944 49.0407 48.1203 51.565H47.6303V43.8979C47.6303 43.3358 47.1746 42.8801 46.6125 42.8801C46.0505 42.8801 45.5947 43.3357 45.5947 43.8979V51.5648H24.4787C23.6045 49.0407 21.205 47.2224 18.3873 47.2224C15.5695 47.2224 13.1699 49.0406 12.2958 51.5648H6.44566C6.40821 51.5648 6.37787 51.5345 6.37787 51.497V49.258H10.7881C11.3501 49.258 11.8059 48.8023 11.8059 48.2402C11.8059 47.678 11.3502 47.2224 10.7881 47.2224H1.01778C0.455762 47.2224 0 47.678 0 48.2402C0 48.8023 0.455635 49.258 1.01778 49.258H4.34243V51.497C4.34243 52.6569 5.28595 53.6004 6.44579 53.6004H11.9434C11.9431 53.623 11.9416 53.6455 11.9416 53.6682C11.9416 57.2222 14.8332 60.1138 18.3873 60.1138C21.9413 60.1138 24.8329 57.2222 24.8329 53.6682C24.8329 53.6453 24.8314 53.623 24.8311 53.6004H47.7678C47.7675 53.623 47.766 53.6455 47.766 53.6682C47.766 57.2222 50.6576 60.1138 54.2117 60.1138C57.7657 60.1138 60.6573 57.2222 60.6573 53.6682C60.6573 53.6453 60.6558 53.623 60.6555 53.6004H63.9821C64.5441 53.6004 64.9999 53.1448 64.9999 52.5826V41.7267C65 39.0462 63.0224 36.8192 60.4497 36.4277ZM21.9502 15.3688C17.9356 12.8741 16.7447 11.7263 16.3922 11.2639C15.4879 10.0783 15.7169 8.37803 16.9027 7.47375C17.3914 7.10101 17.9675 6.92086 18.5395 6.92086C19.3548 6.92086 20.1614 7.28725 20.693 7.98422C21.6775 9.27508 23.2193 13.6198 24.2373 16.7506C23.5503 16.3461 22.7607 15.8727 21.9502 15.3688ZM27.7358 16.7505C28.7537 13.6198 30.2956 9.27521 31.28 7.9841C32.1843 6.79848 33.8846 6.56958 35.0702 7.47375C36.2559 8.37803 36.4848 10.0783 35.5806 11.2639C35.2281 11.7262 34.0373 12.8741 30.0229 15.3687C29.2125 15.8725 28.4229 16.346 27.7358 16.7505ZM47.6305 25.3748H55.2975C56.5321 25.3748 57.5366 26.3792 57.5366 27.6138V27.6816H47.6305V25.3748ZM47.6305 36.3665V29.7172H56.674L58.3364 36.3665H47.6305ZM18.3873 58.0784C15.9555 58.0784 13.977 56.1 13.977 53.6682C13.977 51.2364 15.9555 49.258 18.3873 49.258C20.819 49.258 22.7975 51.2364 22.7975 53.6682C22.7975 56.1 20.819 58.0784 18.3873 58.0784ZM54.2119 58.0784C51.7801 58.0784 49.8017 56.1 49.8017 53.6682C49.8017 51.2364 51.7801 49.258 54.2119 49.258C56.6437 49.258 58.6221 51.2364 58.6221 53.6682C58.6221 56.1 56.6437 58.0784 54.2119 58.0784ZM62.9646 45.0512H61.8111C61.175 45.0512 60.6576 44.5338 60.6576 43.8977V42.7442H62.9644V45.0512H62.9646Z" fill="#734942"/>
<path d="M18.3873 51.5648C17.2275 51.5648 16.2839 52.5083 16.2839 53.6682C16.2839 54.828 17.2275 55.7715 18.3873 55.7715C19.5471 55.7715 20.4907 54.828 20.4907 53.6682C20.4907 52.5083 19.5471 51.5648 18.3873 51.5648Z" fill="#BA9A86"/>
<path d="M54.2119 51.5648C53.052 51.5648 52.1085 52.5083 52.1085 53.6682C52.1085 54.828 53.052 55.7715 54.2119 55.7715C55.3717 55.7715 56.3152 54.828 56.3152 53.6682C56.3152 52.5083 55.3717 51.5648 54.2119 51.5648Z" fill="#BA9A86"/>
<path d="M42.2703 47.2224H27.072C26.51 47.2224 26.0542 47.678 26.0542 48.2401C26.0542 48.8023 26.5098 49.2579 27.072 49.2579H42.2703C42.8323 49.2579 43.2881 48.8023 43.2881 48.2401C43.2881 47.678 42.8325 47.2224 42.2703 47.2224Z" fill="#BA9A86"/>
<path d="M16.2161 42.8801H3.18893C2.6269 42.8801 2.17114 43.3357 2.17114 43.8978C2.17114 44.46 2.62678 44.9156 3.18893 44.9156H16.2161C16.7781 44.9156 17.2339 44.46 17.2339 43.8978C17.2339 43.3357 16.7781 42.8801 16.2161 42.8801Z" fill="#BA9A86"/>
<path d="M16.2162 27.6816H11.8737C11.3117 27.6816 10.856 28.1372 10.856 28.6994V37.3841C10.856 37.9461 11.3116 38.4019 11.8737 38.4019C12.4359 38.4019 12.8915 37.9463 12.8915 37.3841V34.0595H15.1306C15.6926 34.0595 16.1484 33.6038 16.1484 33.0417C16.1484 32.4795 15.6927 32.0239 15.1306 32.0239H12.8915V29.7172H16.2162C16.7782 29.7172 17.234 29.2615 17.234 28.6994C17.2338 28.1374 16.7782 27.6816 16.2162 27.6816Z" fill="#BA9A86"/>
<path d="M24.2255 34.5367C25.244 33.8696 25.9186 32.7191 25.9186 31.4134C25.9186 29.3556 24.2446 27.6816 22.1869 27.6816H19.4729C18.9108 27.6816 18.4551 28.1372 18.4551 28.6994V37.3841C18.4551 37.9461 18.9107 38.4019 19.4729 38.4019C20.035 38.4019 20.4906 37.9463 20.4906 37.3841V35.1451H22.185L24.054 37.9486C24.2501 38.2427 24.5727 38.4019 24.9016 38.4019C25.0957 38.4019 25.2918 38.3466 25.4652 38.2308C25.933 37.9191 26.0593 37.2871 25.7474 36.8196L24.2255 34.5367ZM22.1869 33.1096H20.4906V29.7172H22.1869C23.1223 29.7172 23.8831 30.478 23.8831 31.4134C23.8831 32.3488 23.1223 33.1096 22.1869 33.1096Z" fill="#BA9A86"/>
<path d="M32.5 36.3665H29.1753V34.0562C29.1978 34.0577 29.2203 34.0596 29.2431 34.0596H31.4143C31.9763 34.0596 32.4321 33.604 32.4321 33.0418C32.4321 32.4797 31.9764 32.024 31.4143 32.024H29.2431C29.2201 32.024 29.1978 32.0259 29.1753 32.0275V29.7172H32.5C33.062 29.7172 33.5178 29.2615 33.5178 28.6994C33.5178 28.1374 33.0621 27.6816 32.5 27.6816H28.1576C27.5955 27.6816 27.1398 28.1372 27.1398 28.6994V37.3841C27.1398 37.9461 27.5954 38.4019 28.1576 38.4019H32.5C33.062 38.4019 33.5178 37.9463 33.5178 37.3841C33.5178 36.822 33.062 36.3665 32.5 36.3665Z" fill="#BA9A86"/>
<path d="M40.0992 36.3665H36.7746V34.0596H37.9281C38.4901 34.0596 38.9459 33.604 38.9459 33.0418C38.9459 32.4797 38.4902 32.024 37.9281 32.024H36.7746V29.7172H40.0992C40.6613 29.7172 41.117 29.2615 41.117 28.6994C41.117 28.1374 40.6614 27.6816 40.0992 27.6816H35.7568C35.1948 27.6816 34.739 28.1372 34.739 28.6994V37.3841C34.739 37.9461 35.1947 38.4019 35.7568 38.4019H40.0992C40.6613 38.4019 41.117 37.9463 41.117 37.3841C41.117 36.822 40.6613 36.3665 40.0992 36.3665Z" fill="#BA9A86"/>
</svg>
