<svg xmlns="http://www.w3.org/2000/svg" viewBox="0 0 3401.32 1217.756"><path fill-rule="evenodd" clip-rule="evenodd" fill="#fff" d="M441.62 236.795c.338 2.122 168.415 669.186-293.136 768.463l-30.962 66.148c608.582-119.813 463.591-885.333 463.223-887.63L441.62 236.795zm173.673-153.4c.394 2.463 177.684 930.285-540.851 1027.091l-31.707 67.739C981.416 1052 764.83 29.24 764.403 26.569l-149.11 56.826z"/><path fill-rule="evenodd" clip-rule="evenodd" fill="#fff" d="M784.033 590.269c-69.049 248.388-178.134 401.534-402.388 519.912 256.345-61.94 455.089-43.461 627.434 35.399-129.174-173.861-190.673-291.048-225.046-555.311z"/><path fill="none" stroke="#fff" stroke-width="25.525" stroke-miterlimit="22.926" d="M977.622 506.45h-27.43v361.658h27.43v-187.94l179.813 187.94h38.603l-185.4-188.958 171.687-172.701h-36.572L977.622 679.151V506.45zm483.36 0h-27.43v361.658h27.43v-187.94l179.813 187.94h38.604L1493.998 679.15l171.687-172.701h-36.573l-168.13 172.701v-172.7zm526.946 104.128c0-62.984-43.176-104.127-109.209-104.127h-132.576v361.658h27.431V714.707h105.144c66.033 0 109.21-41.142 109.21-104.129zm-27.43 0c0 50.796-30.984 79.75-84.826 79.75h-102.098V530.831h102.097c53.842 0 84.827 28.954 84.827 79.747zm335.957 257.53v-24.381H2104.45V697.945h163.56v-24.38h-163.56V530.831h192.005V506.45h-219.433v361.658h219.433zm363.894 91.431V843.727h-43.175V506.45h-192.005v132.066c0 90.414-12.698 151.369-46.73 205.211h-33.017v115.812h27.429v-91.431h260.069v91.431h27.429zm-70.604-115.812h-180.83c30.477-50.796 42.16-115.304 42.16-180.829V530.831h138.67v312.896zm411.132 24.381V506.45h-27.429l-199.116 315.943V506.45h-27.429v361.658h27.429l199.116-316.96v316.96h27.429zm324.783-337.277V506.45h-243.307v24.381h107.685v337.277h27.429V530.831h108.193z"/><path fill-rule="evenodd" clip-rule="evenodd" fill="#fff" d="M977.622 506.45h-27.43v361.658h27.43v-187.94l179.813 187.94h38.603l-185.4-188.957 171.687-172.701h-36.572L977.622 679.151V506.45zm483.36 0h-27.43v361.658h27.43v-187.94l179.813 187.94h38.605l-185.401-188.957 171.686-172.701h-36.573l-168.13 172.701V506.45zm526.946 104.128c0-62.984-43.176-104.127-109.209-104.127h-132.576v361.658h27.431V714.707h105.144c66.033 0 109.21-41.142 109.21-104.129zm-27.43 0c0 50.796-30.984 79.75-84.826 79.75h-102.098V530.831h102.097c53.842 0 84.828 28.954 84.827 79.747zm335.957 257.53v-24.381H2104.45V697.945h163.56v-24.38h-163.56V530.831h192.005V506.45h-219.433v361.658h219.433zm363.894 91.431V843.727h-43.175V506.45h-192.005v132.066c0 90.414-12.698 151.369-46.73 205.211h-33.017v115.812h27.429v-91.431h260.069v91.431h27.429zm-70.604-115.812h-180.83c30.477-50.796 42.16-115.304 42.16-180.829V530.831h138.67v312.896zm411.132 24.381V506.45h-27.429l-199.115 315.943V506.45h-27.429v361.658h27.429l199.115-316.96v316.96h27.429zm324.783-337.277V506.45h-243.307v24.381h107.685v337.277h27.429V530.831h108.193zM1254.68 657.066h102.661v48H1254.68v-48z"/></svg>