<svg width="17" height="16" viewBox="0 0 17 16" fill="none" xmlns="http://www.w3.org/2000/svg">
<g clip-path="url(#clip0)">
<path d="M11.1061 8.08183L16.5001 11.4918V4.52783L11.1061 8.08183Z" fill="white"/>
<path d="M0.5 4.52783V11.4918L5.894 8.08183L0.5 4.52783Z" fill="white"/>
<path d="M15.5 2.49988H1.50003C1.00103 2.49988 0.605029 2.87188 0.530029 3.35088L8.50003 8.60188L16.47 3.35088C16.395 2.87188 15.999 2.49988 15.5 2.49988Z" fill="white"/>
<path d="M10.1901 8.68594L8.7751 9.61794C8.6911 9.67294 8.5961 9.69994 8.5001 9.69994C8.4041 9.69994 8.3091 9.67294 8.2251 9.61794L6.8101 8.68494L0.532104 12.6559C0.609104 13.1309 1.0031 13.4999 1.5001 13.4999H15.5001C15.9971 13.4999 16.3911 13.1309 16.4681 12.6559L10.1901 8.68594Z" fill="white"/>
</g>
<defs>
<clipPath id="clip0">
<rect x="0.5" y="-0.00012207" width="16" height="16" fill="white"/>
</clipPath>
</defs>
</svg>
