<svg width="13" height="20" viewBox="0 0 13 20" fill="none" xmlns="http://www.w3.org/2000/svg">
<path d="M6.49973 0.546143C2.91595 0.546143 0 3.68413 0 7.54118C0 8.54725 0.191349 9.50782 0.568446 10.3964C2.19356 14.2234 5.30935 18.2638 6.22581 19.4108C6.29447 19.4966 6.39457 19.5459 6.49991 19.5459C6.60525 19.5459 6.70535 19.4966 6.77401 19.4108C7.69011 18.264 10.8059 14.2237 12.4316 10.3964C12.8088 9.50782 13 8.54725 13 7.54118C12.9996 3.68413 10.0837 0.546143 6.49973 0.546143ZM6.49973 11.1744C4.63809 11.1744 3.12338 9.54437 3.12338 7.54098C3.12338 5.5374 4.63809 3.90735 6.49973 3.90735C8.36136 3.90735 9.87608 5.5374 9.87608 7.54098C9.87626 9.54437 8.36154 11.1744 6.49973 11.1744Z" fill="white"/>
</svg>
