<svg width="17" height="17" viewBox="0 0 17 17" fill="none" xmlns="http://www.w3.org/2000/svg">
<g clip-path="url(#clip0)">
<path d="M11.142 10.3978L12.2439 9.2959L16.531 13.583L15.4291 14.6849L11.142 10.3978Z" fill="white"/>
<path d="M2.3147 1.57044L3.41663 0.468506L7.70362 4.75562L6.60169 5.85755L2.3147 1.57044Z" fill="white"/>
<path d="M10.4655 11.0475C9.61795 10.481 8.79556 9.80104 8.0165 9.02198C7.23647 8.24195 6.55678 7.41969 5.99074 6.57288L1.6515 2.23352L1.21498 2.67004L1.20216 2.68347C0.36964 3.58435 0.309948 5.10572 1.03407 6.96705C1.71351 8.71363 3.01759 10.6054 4.70595 12.2937C6.41457 14.0023 8.32595 15.3139 10.0882 15.9868C10.9303 16.3085 11.7002 16.4685 12.3732 16.4685C13.2066 16.4685 13.8914 16.2229 14.3796 15.7348L14.7661 15.3482L10.4655 11.0475Z" fill="white"/>
</g>
<defs>
<clipPath id="clip0">
<rect x="0.5" y="0.499756" width="16" height="16" fill="white"/>
</clipPath>
</defs>
</svg>
