<svg width="217" height="400" viewBox="0 0 217 400" fill="none" xmlns="http://www.w3.org/2000/svg">
<path d="M46.0028 12.0672C50.5269 15.4898 109.549 35.0118 99.5594 106.21C98.5391 114.983 91.9983 134.059 73.9976 140.177C67.036 140.432 54.764 136.861 61.3694 120.536C69.0941 111.348 92.5926 97.8312 124.789 117.262C142.91 128.34 175.603 162.614 161.413 211.089C160.284 219.933 154.378 238.6 139.797 242.52C133.017 242.334 120.865 237.938 126.504 221.845C132.116 215.153 151.753 205.027 185.414 218.062C202.391 227.602 235.954 256.772 234.39 297.129C234.039 307.907 228.553 331.273 209.414 338.512C204.585 340.156 193.705 341.112 188.823 331.783C187.932 321.966 196.826 304.332 239.521 312.337C259.224 317.203 297.683 340.205 293.894 393.292" stroke="white" stroke-linecap="round" stroke-dasharray="5.3 5.3"/>
</svg>
