<svg width="97" height="94" viewBox="0 0 97 94" fill="none" xmlns="http://www.w3.org/2000/svg">
<ellipse cx="31.2345" cy="69.2033" rx="13.5824" ry="13.5123" stroke="white" stroke-width="1.2265" stroke-linecap="round" stroke-linejoin="round" stroke-dasharray="2.04 3.68"/>
<path d="M44.72 68.7206C47.5982 69.0745 54.0725 68.1608 56.9442 61.6749C62.4742 65.7929 74.7954 70.3228 79.8403 55.4978C84.7235 55.0474 94.684 51.5213 95.4601 41.0203C96.9477 35.3901 96.2557 23.4735 81.5866 20.8483C81.0692 16.8268 78.385 8.43623 71.7878 7.04639C69.8152 6.49946 64.628 5.84958 59.6607 7.62549C53.9366 1.64145 39.8885 -5.71312 29.4882 12.7409C23.0204 11.3896 8.7847 12.432 3.58456 27.4114C2.51737 32.559 3.29351 44.3791 14.9356 50.4789C14.8386 52.6023 15.9446 57.5633 21.1447 60.4202" stroke="white" stroke-width="1.2265" stroke-linecap="round" stroke-linejoin="round" stroke-dasharray="2.04 3.68"/>
<ellipse cx="8.03631" cy="86" rx="7.03631" ry="7" stroke="white" stroke-width="1.2265" stroke-linecap="round" stroke-linejoin="round" stroke-dasharray="2.04 3.68"/>
</svg>
