<svg width="254" height="45" viewBox="0 0 254 45" fill="none" xmlns="http://www.w3.org/2000/svg">
<path d="M-182 3.55808C-175.839 20.4414 -157.085 51.6499 -131.36 41.4176C-126.127 40.3944 -111.863 31.3899 -96.6711 3.55808C-92.6199 15.4105 -79.0483 40.0874 -57.1717 43.9757C-51.9389 44.0609 -39.4983 42.2362 -31.5984 34.255C-26.4499 29.3094 -14.7352 16.2461 -9.06345 3.55808C-6.70023 15.1547 5.01455 39.4735 32.968 43.9757C41.3236 44.4873 61.7823 37.12 76.7718 3.55808C83.2707 22.3173 104.016 55.7428 135.008 39.3711C139.313 37.4952 151.112 27.7063 163.873 3.55808C169.19 20.5266 188.13 51.4453 221.35 39.3711C226.161 37.9216 239.226 28.2179 253 1" stroke="#BA9A86" stroke-width="1.5" stroke-linecap="round" stroke-dasharray="5.3 5.3"/>
</svg>
