<svg width="204" height="210" viewBox="0 0 204 210" fill="none" xmlns="http://www.w3.org/2000/svg">
<path d="M-59.8497 11.521C-55.3255 14.9437 3.69694 34.4656 -6.29304 105.663C-7.31335 114.437 -13.8541 133.512 -31.8548 139.631C-38.8164 139.886 -51.0884 136.315 -44.483 119.989C-36.7583 110.802 -13.2598 97.285 18.9368 116.716C37.0572 127.794 69.7507 162.068 55.5611 210.543C54.4311 219.387 48.526 238.054 33.9449 241.974C27.1643 241.788 15.013 237.392 20.652 221.299C26.2633 214.606 45.901 204.481 79.5618 217.516C96.5388 227.056 130.102 256.225 128.538 296.583C128.187 307.361 122.7 330.727 103.562 337.966C98.7324 339.61 87.8529 340.566 82.9704 331.237C82.08 321.42 90.9732 303.786 133.669 311.791C153.372 316.657 191.83 339.659 188.041 392.746" stroke="#734942" stroke-linecap="round" stroke-dasharray="5.3 5.3"/>
</svg>
