<svg id="ec7448dd-112f-434c-8868-397038c938e0" data-name="Слой 1" xmlns="http://www.w3.org/2000/svg" viewBox="0 0 224.55 123.72"><defs><style>.a4071075-d65e-4fe6-b053-c1a2fadc790a,.f413b66d-a4eb-4d26-a7ae-345bd0b81ead{fill:#fff;}.a4071075-d65e-4fe6-b053-c1a2fadc790a{fill-rule:evenodd;}</style></defs><title>logo-mobile</title><path class="a4071075-d65e-4fe6-b053-c1a2fadc790a" d="M197.48,50.69a6.45,6.45,0,0,0,2.87-3.1c3.88-3,7.45-5,9.87-5.21,3.63.7,9,.79,11.09.26,3.31-.85,4.43,1.59,1.74,2.75C219.22,47.05,206.64,49.17,197.48,50.69Z"/><path class="a4071075-d65e-4fe6-b053-c1a2fadc790a" d="M44.27,40.79c15.19-.59,31.13,1,45.56.77,13.71-.2,32.52-1.82,41.07-2,3.39-.1,7.37-.35,10.16.68-3.29-.58-6.78.42-10.16.59-8.51.43-27.36,2-41.07,2C75.4,42.79,59.55,40.92,44.27,40.79Z"/><ellipse class="f413b66d-a4eb-4d26-a7ae-345bd0b81ead" cx="37.23" cy="43.36" rx="1.76" ry="2.27"/><circle class="f413b66d-a4eb-4d26-a7ae-345bd0b81ead" cx="52.09" cy="43.66" r="0.88"/><circle class="f413b66d-a4eb-4d26-a7ae-345bd0b81ead" cx="55.95" cy="44.1" r="0.44"/><ellipse class="f413b66d-a4eb-4d26-a7ae-345bd0b81ead" cx="73.56" cy="45.81" rx="2.59" ry="1.28"/><ellipse class="f413b66d-a4eb-4d26-a7ae-345bd0b81ead" cx="92.77" cy="48.94" rx="1.86" ry="1.17"/><ellipse class="f413b66d-a4eb-4d26-a7ae-345bd0b81ead" cx="106.75" cy="49.39" rx="2.74" ry="2.29"/><path class="a4071075-d65e-4fe6-b053-c1a2fadc790a" d="M58.06,47.29c3,.53,4.87,1.35,2.25,3.31,2.66-.35,2.66.76,1.59,2.53,1.41.78,1.7,1.87,0,3.51,2,.13,2.8.82,1.17,2.73,1.73.1,2.54.76,0,3.41,3.81.61,3,1.94,0,3.61,4.19.85,11.24-3.66,21-13.26a431.33,431.33,0,0,0,55.93,0c1.56,1.07,1.66,2.24,0,3.51,1.87.82.93,1.78,0,2.73,2.65-.89,2.35,1.13,1.76,3.41,1.56-1.41,2-.41,2.05,1.46.95-.94,1.39-.39,1.47,1.27,1.18-2,2-2.13,2.13.88.82-2.45,1.18-2.45,1.06,0q6.21-6.28,5.77-13.26a56.85,56.85,0,0,0,20.45-2.53c0,.3-13.54,2.22-20.43,1.85-15.08-.81-46.83,1.13-70.24-.59-5-.51-9.77-3.58-14.9-4.57a108,108,0,0,0-17.21-1.66,19.2,19.2,0,0,0-7.72,1.66A51.8,51.8,0,0,1,58.06,47.29Z"/><path class="a4071075-d65e-4fe6-b053-c1a2fadc790a" d="M143.85,41c-.37-2.61,26.51-2.55,23.77-2.42-4,.16-7.51,9.35-3.53,9.34-3.59,0-5.07,1.07-5.48,2.73-2.19-5.41-6.63-9-14.76-9.65"/><path class="a4071075-d65e-4fe6-b053-c1a2fadc790a" d="M36.94,46.89c-9.32,8.83-21.43,14.9-35.12,19.5,4.49-4.32,10.35-10.78,9-15.4-.71-2.47,0-7,4.69-10-3.7-.85-6-6.9-4.69-12.87.87-4-5.37-8.65-9-13.36,7.45.73,19.61,6.45,26.78,13.36,6.94,6.67,20.1,5.66,32.27,2.64,1.65-.9,3.13-1.84,1.5-3.68,1.6.17,2.55-.42,1.4-3.44,1.8-.14,2.62-.75,1.06-2.49C66.38,20.83,67,20,66,18.34c1.67,0,2.7-.45,1.06-2.54,1.88,0,2.62-.64,1-2.47,2.77.95,2.74-.31,1.14-2.79A44.92,44.92,0,0,1,87.16,25a324.8,324.8,0,0,1,38.72,0c1.26.05,2.5,0,1.66-6.63,1.62.6,2.67,0,2.35-3.61,1.59.14,2.56-.63,2.34-3.12,1.46,1.13,2.3,1.07,2.05-1.06,1.71,2.62,2.64,2.62,3.13,1.06,5.32,3.91,8.44,8.4,9.68,13.36,28.78.2,53.92,4.49,74.79,13.57a17.33,17.33,0,0,0-2.71.14,8.28,8.28,0,0,0-.39,1.19,7.36,7.36,0,0,0,0-1.15c-.61.06-1.2.14-1.79.23A6.48,6.48,0,0,0,216.1,40s.08-.92-.08-.88a35.48,35.48,0,0,0-15.65,7.76c-1.06,2.28-2.37,3.38-3.8,3.83-.6.2-13.22,2.56-17.65,1.45-9.79-2.45-13.39-13.92-4.26-21.89l-6.1-.87c-1.72,2.29-3.63,3-6,.13-1.67,2.71-3.56,3.19-5.81.12-1.41,4.61-3.93,4.42-7.37.15-1.36,2.63-3.79,2.56-7.14.15-.94,4.32-3.75,4.4-8.47.18-.73,7.18-3.24,5.48-6.5.14-1.57,4.83-3.94,5.43-7.37.16-.76,4.89-2.87,5.09-6.39.14-1.18,5.49-3.39,5.43-6.58.14-.32,5.63-2.38,6.84-7.61.16-1.06,5.13-3,5.09-5.57.11-1.07,5.93-3.45,5-6.53.14-.85,5.32-3.1,6.39-7.66.16-1.15,5.51-2.7,6.3-4.85.1-.21,3.88-1,6.27-4,2.23.65,3.51-.69,3.94-3.57,2,.33,3-1.92,2.19-5,.1-.14,2.94-2.19,2.74-5.71.12.84,2.49-1.07,2.13-4.66.09.68,2.35-1.06,2.46-5.32.12.88,2.29-.46,2.57-4.82.11.75,3.83-1,3.52-4.57.09-7.29.57-13.7,4.26-11.5,4.65,2.79.48,2.71,1.25.19,2.21s5.25,4.2,11.08,3.76ZM174.58,30.27h0c-6.06,8.59-2.78,14.13,2,16.62,9.72,4,14.54,2.38,18.66,0,4.21-4.34,10.93-7.37,17.8-8.63-3.12-1.85-12-3.89-16.8-4.49a3.06,3.06,0,1,1-4.29.5,3.11,3.11,0,0,1,1.55-1c0-.09.08-.18.13-.27C187.54,30.62,181.35,28.93,174.58,30.27Z"/><path class="f413b66d-a4eb-4d26-a7ae-345bd0b81ead" d="M1.84,110.79V73.38H6V87.22A8.5,8.5,0,0,1,9.22,84a8,8,0,0,1,4.31-1.23,10.42,10.42,0,0,1,8.52,4.26,15.26,15.26,0,0,1,3.19,9.73,16.48,16.48,0,0,1-3.15,10,10.37,10.37,0,0,1-8.51,4.43,7.73,7.73,0,0,1-4.38-1.42,10.26,10.26,0,0,1-3.13-3.45v4.43ZM6,96.77A13,13,0,0,0,7.94,104a6.37,6.37,0,0,0,11.19,0A13.32,13.32,0,0,0,21,96.77a12.82,12.82,0,0,0-1.91-7,6.38,6.38,0,0,0-5.54-3.19,6.48,6.48,0,0,0-5.59,3.19A12.73,12.73,0,0,0,6,96.77Z"/><path class="f413b66d-a4eb-4d26-a7ae-345bd0b81ead" d="M28.18,103.29a7,7,0,0,1,3.26-5.91,14.46,14.46,0,0,1,7.26-2.46A15.1,15.1,0,0,0,43.26,94a3,3,0,0,0,2.13-2.83,4.65,4.65,0,0,0-1.66-3.63,5.69,5.69,0,0,0-3.94-1.48,6.5,6.5,0,0,0-4.18,1.41,4.55,4.55,0,0,0-1.86,3.7v.92H29.5V90.24a6.88,6.88,0,0,1,3.19-5.84,11.91,11.91,0,0,1,7.08-2.13A11.15,11.15,0,0,1,46.6,84.4a7,7,0,0,1,3,5.78v14a2.59,2.59,0,0,0,.86,2,2.66,2.66,0,0,0,2,.8v3.75H50.83a5.55,5.55,0,0,1-3-.86,4.87,4.87,0,0,1-1.87-2.33,7.71,7.71,0,0,1-3.64,2.83,12.6,12.6,0,0,1-4.74.86,10.12,10.12,0,0,1-6.76-2.13A7.13,7.13,0,0,1,28.18,103.29Zm4.18,0a3.58,3.58,0,0,0,1.61,3,6,6,0,0,0,3.56,1.06,8.27,8.27,0,0,0,5.48-1.9,6,6,0,0,0,2.4-4.87V96.77q-1.72,1.42-6.27,1.78H38A7.29,7.29,0,0,0,34.08,100,3.94,3.94,0,0,0,32.36,103.29Z"/><path class="f413b66d-a4eb-4d26-a7ae-345bd0b81ead" d="M56.42,110.79V83.23h4.2v4.86a7.35,7.35,0,0,1,3.32-3.94,9.38,9.38,0,0,1,5.11-1.41h1.84V87H69.05A7.63,7.63,0,0,0,63,89.82a9.48,9.48,0,0,0-2.4,6.52v14.45Z"/><path class="f413b66d-a4eb-4d26-a7ae-345bd0b81ead" d="M74.52,110.79V83.23h4.19v4.86A7.47,7.47,0,0,1,82,84.15a9.56,9.56,0,0,1,5.11-1.41H89V87H87.14a7.66,7.66,0,0,0-6.08,2.82,9.47,9.47,0,0,0-2.39,6.52v14.45Z"/><path class="f413b66d-a4eb-4d26-a7ae-345bd0b81ead" d="M90.77,103.29A7,7,0,0,1,94,97.38a14.59,14.59,0,0,1,7.25-2.46,15.16,15.16,0,0,0,4.56-.92A2.93,2.93,0,0,0,108,91.17a4.65,4.65,0,0,0-1.66-3.63,5.65,5.65,0,0,0-3.93-1.48,6.55,6.55,0,0,0-4.19,1.41,4.57,4.57,0,0,0-1.85,3.7v.92H92.08V90.24a6.85,6.85,0,0,1,3.19-5.84,11.91,11.91,0,0,1,7.08-2.13,11.15,11.15,0,0,1,6.83,2.13,7,7,0,0,1,3,5.78v14a2.59,2.59,0,0,0,.86,2,2.66,2.66,0,0,0,2,.8v3.75h-1.61a5.54,5.54,0,0,1-3-.86,5,5,0,0,1-1.91-2.4,7.63,7.63,0,0,1-3.63,2.83,12.81,12.81,0,0,1-4.74.87A10.15,10.15,0,0,1,93.35,109,7.16,7.16,0,0,1,90.77,103.29Zm4.18,0a3.52,3.52,0,0,0,1.61,3,6,6,0,0,0,3.56,1.06,8.28,8.28,0,0,0,5.48-1.9,6,6,0,0,0,2.4-4.87V96.77c-1.15.94-3.2,1.54-6.28,1.78h-1.17A7.29,7.29,0,0,0,96.67,100,3.94,3.94,0,0,0,95,103.29Z"/><path class="f413b66d-a4eb-4d26-a7ae-345bd0b81ead" d="M117.48,96.77q0-6.58,3.32-10.53a11,11,0,0,1,8.87-3.94,11.74,11.74,0,0,1,8.05,2.83,10.85,10.85,0,0,1,3.57,7.45H137.1a6.68,6.68,0,0,0-2.27-4.73,7.55,7.55,0,0,0-5.16-1.79,6.8,6.8,0,0,0-5.79,3,12.48,12.48,0,0,0-2.22,7.76,12.64,12.64,0,0,0,2.22,7.81,6.83,6.83,0,0,0,5.79,3,7.22,7.22,0,0,0,5.1-1.91,7.72,7.72,0,0,0,2.33-5.11h4.19a11.36,11.36,0,0,1-3.63,7.75,11.18,11.18,0,0,1-8,3,11,11,0,0,1-8.87-3.94Q117.49,103.36,117.48,96.77Z"/><path class="f413b66d-a4eb-4d26-a7ae-345bd0b81ead" d="M145,100.09V83.23h4.19V99.6a8.68,8.68,0,0,0,1.78,5.48,5.87,5.87,0,0,0,4.8,2.46,6.88,6.88,0,0,0,5.32-2.35,7.88,7.88,0,0,0,2.13-5.59V83.23h4.26v27.56h-4.26v-3.74a7.54,7.54,0,0,1-3.57,3.19,11.35,11.35,0,0,1-4.8,1,8.87,8.87,0,0,1-7.08-3.39A11.64,11.64,0,0,1,145,100.09Z"/><path class="f413b66d-a4eb-4d26-a7ae-345bd0b81ead" d="M172.31,96.77A15.26,15.26,0,0,1,175.5,87a10.24,10.24,0,0,1,8.43-4.26A8,8,0,0,1,188.24,84a8.42,8.42,0,0,1,3.19,3.19V73.36h4.26v37.41h-4.26v-4.43a10,10,0,0,1-3.14,3.45,7.64,7.64,0,0,1-4.36,1.42,10.15,10.15,0,0,1-8.51-4.49A16.14,16.14,0,0,1,172.31,96.77Zm4.18,0a13.32,13.32,0,0,0,1.85,7.2,6.39,6.39,0,0,0,11.2,0,14.27,14.27,0,0,0,0-14.23,6.5,6.5,0,0,0-5.6-3.19,6.37,6.37,0,0,0-5.54,3.19A12.73,12.73,0,0,0,176.49,96.77Z"/><path class="f413b66d-a4eb-4d26-a7ae-345bd0b81ead" d="M200.26,103.29a7,7,0,0,1,3.26-5.91,14.46,14.46,0,0,1,7.26-2.46,15.1,15.1,0,0,0,4.56-.92,3,3,0,0,0,2.13-2.83,4.69,4.69,0,0,0-1.66-3.63,5.69,5.69,0,0,0-3.94-1.48,6.58,6.58,0,0,0-4.16,1.41,4.55,4.55,0,0,0-1.86,3.7v.92H201.6V90.24a6.88,6.88,0,0,1,3.19-5.84,11.93,11.93,0,0,1,7.08-2.13,11.15,11.15,0,0,1,6.83,2.13,7,7,0,0,1,3,5.78v14a2.59,2.59,0,0,0,.86,2,2.67,2.67,0,0,0,2,.8v3.75h-1.66a5.54,5.54,0,0,1-3-.86,5,5,0,0,1-1.91-2.4,7.57,7.57,0,0,1-3.63,2.83,12.81,12.81,0,0,1-4.74.87,10.15,10.15,0,0,1-6.77-2.13A7.18,7.18,0,0,1,200.26,103.29Zm4.18,0a3.54,3.54,0,0,0,1.61,3,6,6,0,0,0,3.56,1.06,8.27,8.27,0,0,0,5.48-1.9,6,6,0,0,0,2.4-4.87V96.77c-1.15.94-3.2,1.54-6.28,1.78h-1.16a7.29,7.29,0,0,0-3.89,1.42,3.93,3.93,0,0,0-1.73,3.32Z"/></svg>