<svg id="Слой_1" data-name="Слой 1" xmlns="http://www.w3.org/2000/svg" xmlns:xlink="http://www.w3.org/1999/xlink" viewBox="0 0 530.04 123.72"><defs><style>.cls-1{fill:none;}.cls-2,.cls-3{fill:#fff;}.cls-2{fill-rule:evenodd;}.cls-4{fill:#a6ce38;}.cls-5{clip-path:url(#clip-path);}.cls-6{fill:#f47620;}.cls-7{clip-path:url(#clip-path-2);}.cls-8{fill:#00aeef;}.cls-9{clip-path:url(#clip-path-3);}</style><clipPath id="clip-path"><rect class="cls-1" x="245.79" y="13.57" width="84.26" height="84.26"/></clipPath><clipPath id="clip-path-2"><rect class="cls-1" x="340.91" y="13.91" width="84.26" height="84.26"/></clipPath><clipPath id="clip-path-3"><rect class="cls-1" x="435.86" y="13.57" width="84.26" height="84.26"/></clipPath></defs><title>Монтажная область 1</title><path class="cls-2" d="M192.39,51.31a6.13,6.13,0,0,0,2.7-2.92c3.64-2.79,7-4.72,9.27-4.89,3.41.66,8.47.74,10.42.24,3.11-.8,4.16,1.5,1.64,2.59C212.82,47.89,201,49.88,192.39,51.31Z"/><path class="cls-2" d="M48.43,42c14.27-.55,29.25.93,42.81.73,12.88-.19,30.56-1.71,38.59-1.92,3.19-.09,6.93-.33,9.55.64-3.09-.55-6.37.39-9.55.55-8,.41-25.71,1.91-38.59,1.91C77.68,43.88,62.79,42.13,48.43,42Z"/><ellipse class="cls-3" cx="41.82" cy="44.42" rx="1.65" ry="2.13"/><circle class="cls-3" cx="55.78" cy="44.7" r="0.83"/><circle class="cls-3" cx="59.41" cy="45.11" r="0.41"/><ellipse class="cls-3" cx="75.95" cy="46.72" rx="2.43" ry="1.2"/><ellipse class="cls-3" cx="94" cy="49.66" rx="1.75" ry="1.1"/><ellipse class="cls-3" cx="107.14" cy="50.08" rx="2.57" ry="2.15"/><path class="cls-2" d="M61.39,48.11c2.8.5,4.57,1.27,2.11,3.11C66,50.89,66,51.94,65,53.6c1.32.73,1.59,1.76,0,3.3,1.84.12,2.63.77,1.1,2.56,1.62.1,2.38.72,0,3.21,3.58.57,2.8,1.82,0,3.39,3.93.8,10.56-3.44,19.75-12.46a405.93,405.93,0,0,0,52.55,0c1.47,1,1.56,2.1,0,3.3,1.76.77.87,1.67,0,2.56,2.49-.83,2.21,1.06,1.65,3.21,1.47-1.33,1.89-.39,1.93,1.37.89-.89,1.31-.37,1.38,1.19,1.11-1.83,1.87-2,2,.83q1.16-3.45,1,0,5.83-5.91,5.42-12.46A53.41,53.41,0,0,0,171,51.22c0,.28-12.73,2.09-19.2,1.74-14.17-.76-44,1.06-66-.55-4.72-.48-9.18-3.37-14-4.3a101.2,101.2,0,0,0-16.17-1.56,18.09,18.09,0,0,0-7.26,1.56A48.9,48.9,0,0,1,61.39,48.11Z"/><path class="cls-2" d="M142,42.15c-.35-2.45,24.91-2.39,22.33-2.27-3.77.15-7.05,8.79-3.31,8.78-3.38,0-4.77,1-5.15,2.56-2.06-5.08-6.23-8.47-13.87-9.07"/><path class="cls-2" d="M41.54,47.74c-8.75,8.29-20.13,14-33,18.32C12.76,62,18.27,55.93,17,51.59c-.67-2.32,0-6.55,4.41-9.44-3.48-.79-5.64-6.48-4.41-12.09.82-3.72-5.05-8.13-8.45-12.55,7,.68,18.43,6.06,25.17,12.55,6.52,6.27,18.88,5.32,30.32,2.48,1.55-.84,2.94-1.73,1.41-3.46,1.5.16,2.39-.39,1.31-3.23,1.69-.13,2.46-.7,1-2.34,1.45-.26,2-1,1.06-2.6,1.57,0,2.54-.42,1-2.39,1.76,0,2.46-.6.94-2.32,2.6.89,2.57-.29,1.07-2.62a42.23,42.23,0,0,1,16.9,13.55,304.49,304.49,0,0,1,36.38,0c1.19.05,2.35,0,1.56-6.23,1.53.56,2.51,0,2.21-3.39,1.5.13,2.41-.59,2.2-2.93,1.37,1.06,2.16,1,1.93-1,1.6,2.46,2.48,2.46,2.94,1,5,3.67,7.93,7.89,9.09,12.55,27.05.19,50.67,4.22,70.28,12.75-.87,0-1.72,0-2.55.13a8.15,8.15,0,0,0-.37,1.12,6.49,6.49,0,0,0,0-1.08c-.57.06-1.12.13-1.68.22a5.84,5.84,0,0,0-.83,1s.07-.86-.08-.83a33.21,33.21,0,0,0-14.7,7.3c-1,2.14-2.23,3.17-3.57,3.59-.57.19-12.43,2.41-16.59,1.37-9.2-2.31-12.58-13.08-4-20.57l-5.73-.82c-1.62,2.15-3.41,2.84-5.62.12-1.57,2.55-3.35,3-5.46.12-1.33,4.33-3.69,4.15-6.93.14-1.27,2.47-3.56,2.4-6.71.14-.88,4.06-3.52,4.13-7.95.17-.69,6.74-3.05,5.15-6.11.13-1.48,4.54-3.7,5.1-6.93.15-.71,4.59-2.69,4.78-6,.13-1.11,5.16-3.19,5.1-6.18.13-.3,5.29-2.24,6.43-7.15.15-1,4.82-2.78,4.78-5.24.11-1,5.57-3.24,4.66-6.13.13-.8,5-2.92,6-7.2.15-1.08,5.17-2.54,5.92-4.56.09-.2,3.65-.9,5.89-3.71,2.1.61,3.29-.65,3.7-3.35,1.89.31,2.83-1.81,2.06-4.73.1-.13,2.76-2.06,2.57-5.37.11.79,2.34-1,2-4.37.09.63,2.2-1,2.31-5,.11.82,2.15-.44,2.41-4.53.1.7,3.6-.92,3.31-4.3.09-6.85.53-12.87,4-10.8,4.37,2.62.45,2.54,1.17.18,2.07S36,48.15,41.48,47.74ZM170.87,32.12h0c-5.69,8.07-2.61,13.28,1.86,15.62,9.14,3.72,13.67,2.23,17.54,0,3.95-4.08,10.27-6.93,16.72-8.11-2.93-1.74-11.25-3.66-15.78-4.22a2.87,2.87,0,1,1-2.58-.51c0-.08.08-.17.12-.25C183.05,32.45,177.23,30.86,170.87,32.12Z"/><path class="cls-3" d="M8.56,107.78V72.63H12.5v13a8,8,0,0,1,3-3,7.53,7.53,0,0,1,4.05-1.15,9.77,9.77,0,0,1,8,4,14.36,14.36,0,0,1,3,9.14A15.48,15.48,0,0,1,27.59,104a9.74,9.74,0,0,1-8,4.16,7.22,7.22,0,0,1-4.11-1.33,9.59,9.59,0,0,1-2.94-3.24v4.16ZM12.5,94.6a12.18,12.18,0,0,0,1.79,6.77,6,6,0,0,0,10.52,0,12.51,12.51,0,0,0,1.74-6.77A12,12,0,0,0,24.75,88a6,6,0,0,0-5.2-3,6.12,6.12,0,0,0-5.26,3A12,12,0,0,0,12.5,94.6Z"/><path class="cls-3" d="M33.31,100.73a6.58,6.58,0,0,1,3.07-5.55,13.55,13.55,0,0,1,6.82-2.31A14.22,14.22,0,0,0,47.48,92a2.76,2.76,0,0,0,2-2.66,4.38,4.38,0,0,0-1.56-3.41,5.36,5.36,0,0,0-3.7-1.39,6.13,6.13,0,0,0-3.93,1.33,4.26,4.26,0,0,0-1.74,3.47v.87h-4V88.47a6.48,6.48,0,0,1,3-5.49,11.22,11.22,0,0,1,6.65-2,10.44,10.44,0,0,1,6.42,2,6.52,6.52,0,0,1,2.83,5.43v13.18a2.45,2.45,0,0,0,.81,1.86,2.52,2.52,0,0,0,1.85.75v3.52H54.59a5.16,5.16,0,0,1-2.83-.81A4.58,4.58,0,0,1,50,104.72a7.22,7.22,0,0,1-3.42,2.66,11.87,11.87,0,0,1-4.45.81,9.51,9.51,0,0,1-6.36-2A6.73,6.73,0,0,1,33.31,100.73Zm3.93,0a3.34,3.34,0,0,0,1.51,2.78,5.67,5.67,0,0,0,3.35,1,7.78,7.78,0,0,0,5.15-1.79,5.6,5.6,0,0,0,2.25-4.57V94.6q-1.62,1.34-5.89,1.68l-1.1,0a6.8,6.8,0,0,0-3.65,1.33A3.7,3.7,0,0,0,37.24,100.73Z"/><path class="cls-3" d="M59.85,107.78V81.88h3.94v4.57a6.94,6.94,0,0,1,3.12-3.7,8.87,8.87,0,0,1,4.8-1.33h1.73v4H71.71A7.21,7.21,0,0,0,66,88.07a8.92,8.92,0,0,0-2.25,6.13v13.58Z"/><path class="cls-3" d="M76.85,107.78V81.88h3.94v4.57a7,7,0,0,1,3.12-3.7,8.9,8.9,0,0,1,4.8-1.33h1.73v4H88.71A7.21,7.21,0,0,0,83,88.07a8.92,8.92,0,0,0-2.25,6.13v13.58Z"/><path class="cls-3" d="M92.12,100.73a6.58,6.58,0,0,1,3.07-5.55A13.55,13.55,0,0,1,102,92.87a14.29,14.29,0,0,0,4.28-.87,2.76,2.76,0,0,0,2-2.66,4.38,4.38,0,0,0-1.56-3.41,5.36,5.36,0,0,0-3.7-1.39,6.13,6.13,0,0,0-3.93,1.33,4.26,4.26,0,0,0-1.74,3.47v.87h-4V88.47a6.46,6.46,0,0,1,3-5.49,11.22,11.22,0,0,1,6.65-2,10.44,10.44,0,0,1,6.42,2,6.52,6.52,0,0,1,2.83,5.43v13.18a2.45,2.45,0,0,0,.81,1.86,2.52,2.52,0,0,0,1.85.75v3.52H113.4a5.14,5.14,0,0,1-2.83-.81,4.66,4.66,0,0,1-1.8-2.25,7.19,7.19,0,0,1-3.41,2.66,11.87,11.87,0,0,1-4.45.81,9.51,9.51,0,0,1-6.36-2A6.73,6.73,0,0,1,92.12,100.73Zm3.93,0a3.32,3.32,0,0,0,1.51,2.78,5.67,5.67,0,0,0,3.35,1,7.8,7.8,0,0,0,5.15-1.79,5.6,5.6,0,0,0,2.25-4.57V94.6c-1.08.89-3,1.45-5.9,1.68l-1.1,0a6.77,6.77,0,0,0-3.64,1.33A3.7,3.7,0,0,0,96.05,100.73Z"/><path class="cls-3" d="M117.22,94.6q0-6.18,3.12-9.89a10.34,10.34,0,0,1,8.33-3.7,11,11,0,0,1,7.57,2.66,10.18,10.18,0,0,1,3.35,7h-3.93a6.32,6.32,0,0,0-2.14-4.45,7.07,7.07,0,0,0-4.85-1.68,6.39,6.39,0,0,0-5.44,2.77,11.69,11.69,0,0,0-2.08,7.29,11.9,11.9,0,0,0,2.08,7.34,6.4,6.4,0,0,0,5.44,2.78,6.78,6.78,0,0,0,4.8-1.79,7.29,7.29,0,0,0,2.19-4.8h3.93a10.65,10.65,0,0,1-3.41,7.28,10.52,10.52,0,0,1-7.51,2.78,10.34,10.34,0,0,1-8.33-3.7Q117.22,100.79,117.22,94.6Z"/><path class="cls-3" d="M143.12,97.72V81.88h3.93V97.26a8.11,8.11,0,0,0,1.68,5.15,5.5,5.5,0,0,0,4.51,2.31,6.46,6.46,0,0,0,5-2.2,7.49,7.49,0,0,0,2-5.26V81.88h4v25.9h-4v-3.52a7.07,7.07,0,0,1-3.36,3,10.64,10.64,0,0,1-4.51.93,8.33,8.33,0,0,1-6.65-3.18A10.91,10.91,0,0,1,143.12,97.72Z"/><path class="cls-3" d="M168.74,94.6a14.3,14.3,0,0,1,3-9.14,9.61,9.61,0,0,1,7.92-4,7.53,7.53,0,0,1,4.05,1.15,8,8,0,0,1,3,3v-13h4v35.15h-4v-4.16a9.52,9.52,0,0,1-2.95,3.24,7.19,7.19,0,0,1-4.1,1.33,9.54,9.54,0,0,1-8-4.22A15.16,15.16,0,0,1,168.74,94.6Zm3.93,0a12.51,12.51,0,0,0,1.74,6.77,6,6,0,0,0,10.52,0,12.18,12.18,0,0,0,1.79-6.77A12,12,0,0,0,184.93,88a6.12,6.12,0,0,0-5.26-3,6,6,0,0,0-5.21,3A12,12,0,0,0,172.67,94.6Z"/><path class="cls-3" d="M195,100.73a6.58,6.58,0,0,1,3.07-5.55,13.55,13.55,0,0,1,6.82-2.31,14.29,14.29,0,0,0,4.28-.87,2.76,2.76,0,0,0,2-2.66,4.38,4.38,0,0,0-1.56-3.41,5.36,5.36,0,0,0-3.7-1.39A6.13,6.13,0,0,0,202,85.87a4.26,4.26,0,0,0-1.74,3.47v.87h-4V88.47a6.48,6.48,0,0,1,3-5.49,11.22,11.22,0,0,1,6.65-2,10.44,10.44,0,0,1,6.42,2,6.52,6.52,0,0,1,2.83,5.43v13.18a2.45,2.45,0,0,0,.81,1.86,2.52,2.52,0,0,0,1.85.75v3.52h-1.56a5.16,5.16,0,0,1-2.83-.81,4.66,4.66,0,0,1-1.8-2.25,7.14,7.14,0,0,1-3.41,2.66,11.87,11.87,0,0,1-4.45.81,9.51,9.51,0,0,1-6.36-2A6.73,6.73,0,0,1,195,100.73Zm3.93,0a3.32,3.32,0,0,0,1.51,2.78,5.67,5.67,0,0,0,3.35,1,7.78,7.78,0,0,0,5.15-1.79,5.6,5.6,0,0,0,2.25-4.57V94.6c-1.08.89-3,1.45-5.9,1.68l-1.09,0a6.77,6.77,0,0,0-3.65,1.33A3.7,3.7,0,0,0,198.92,100.73Z"/><rect class="cls-4" x="245.79" y="13.57" width="84.26" height="84.26"/><g class="cls-5"><path class="cls-3" d="M282,27.6H331.2V38.83l-31.52,32.9h32.67V83.81H279V72.15L310.19,39.6H282Z"/></g><rect class="cls-6" x="340.91" y="13.91" width="84.26" height="84.26"/><g class="cls-7"><path class="cls-3" d="M372.61,56.08q0-13.32,7.42-20.73t20.65-7.42q13.57,0,20.91,7.29t7.35,20.42q0,9.53-3.21,15.63a22.91,22.91,0,0,1-9.27,9.49q-6.07,3.39-15.11,3.39-9.19,0-15.23-2.93A22.86,22.86,0,0,1,376.36,72Q372.61,65.6,372.61,56.08Zm16.8.07q0,8.24,3.06,11.83a10.33,10.33,0,0,0,8.32,3.6q5.41,0,8.38-3.52t3-12.65q0-7.66-3.1-11.21a10.59,10.59,0,0,0-8.4-3.54,10.25,10.25,0,0,0-8.16,3.59Q389.41,47.85,389.41,56.15Z"/></g><rect class="cls-8" x="435.86" y="13.57" width="84.26" height="84.26"/><g class="cls-9"><path class="cls-3" d="M467.55,55.74q0-13.32,7.42-20.73t20.65-7.42q13.58,0,20.92,7.29t7.34,20.42q0,9.53-3.21,15.63a23,23,0,0,1-9.27,9.49q-6.06,3.39-15.11,3.39t-15.22-2.93a22.83,22.83,0,0,1-9.77-9.27Q467.55,65.26,467.55,55.74Zm16.8.07q0,8.23,3.06,11.83a10.34,10.34,0,0,0,8.32,3.6c3.61,0,6.41-1.17,8.38-3.53s3-6.56,3-12.64q0-7.66-3.1-11.21a10.55,10.55,0,0,0-8.39-3.55,10.2,10.2,0,0,0-8.16,3.6Q484.36,47.51,484.35,55.81Z"/></g><path class="cls-3" d="M311.57,115.72l4.08-7.34H317v10.89h-1.37v-8.36L312,117.45h-.84l-3.68-6.54v8.36h-1.4V108.38h1.42Z"/><path class="cls-3" d="M338.92,119.48a4,4,0,0,1-1.44-.26,3.86,3.86,0,0,1-1.15-.72,3.41,3.41,0,0,1-.76-1.08,3.26,3.26,0,0,1-.27-1.33,2.68,2.68,0,0,1,.33-1.31,3.13,3.13,0,0,1,.94-1,4.74,4.74,0,0,1,1.45-.68,6.61,6.61,0,0,1,1.84-.24,9.82,9.82,0,0,1,1.69.15,7.1,7.1,0,0,1,1.53.41v-1a3.19,3.19,0,0,0-.82-2.29,3,3,0,0,0-2.26-.85,4.82,4.82,0,0,0-1.71.34,8,8,0,0,0-1.78,1l-.5-.94a7.33,7.33,0,0,1,4.1-1.42,4.39,4.39,0,0,1,3.22,1.15,4.24,4.24,0,0,1,1.17,3.18v4.91c0,.39.17.58.52.58v1.26a3.61,3.61,0,0,1-.54.06,1.22,1.22,0,0,1-.85-.27,1,1,0,0,1-.32-.75l-.05-.86a4.9,4.9,0,0,1-1.89,1.51A6,6,0,0,1,338.92,119.48Zm.33-1.09a4.9,4.9,0,0,0,2-.42,3.26,3.26,0,0,0,1.41-1.11,1.08,1.08,0,0,0,.28-.4,1.11,1.11,0,0,0,.1-.41v-1.78a9.28,9.28,0,0,0-1.48-.42,9,9,0,0,0-1.56-.14,4.31,4.31,0,0,0-2.44.63,1.89,1.89,0,0,0-.94,1.65,2.18,2.18,0,0,0,.2.94,2.29,2.29,0,0,0,.54.76,2.32,2.32,0,0,0,.83.51A2.68,2.68,0,0,0,339.25,118.39Z"/><path class="cls-3" d="M369.17,119.48a4.29,4.29,0,0,1-2.44-.7A5.63,5.63,0,0,1,365,117v6.71h-1.42V108.38h1.27v2.11a5.31,5.31,0,0,1,1.74-1.66,4.38,4.38,0,0,1,2.32-.64,4.5,4.5,0,0,1,2.07.47,5.38,5.38,0,0,1,1.63,1.25,6,6,0,0,1,1.08,1.81,6.14,6.14,0,0,1,.38,2.11,6.82,6.82,0,0,1-.35,2.18,5.69,5.69,0,0,1-1,1.8,4.93,4.93,0,0,1-1.57,1.22A4.41,4.41,0,0,1,369.17,119.48Zm-.4-1.26a3.4,3.4,0,0,0,1.6-.37,3.84,3.84,0,0,0,1.23-1,4.2,4.2,0,0,0,.79-1.4,4.92,4.92,0,0,0,.27-1.62,4.71,4.71,0,0,0-.31-1.67,4.63,4.63,0,0,0-.86-1.4,4.11,4.11,0,0,0-1.29-1,3.58,3.58,0,0,0-1.6-.36,3.48,3.48,0,0,0-1.14.22,5.06,5.06,0,0,0-1.1.59,3.6,3.6,0,0,0-.88.86,2.25,2.25,0,0,0-.45,1v3.35a4.88,4.88,0,0,0,.64,1.08,4,4,0,0,0,.88.87,3.57,3.57,0,0,0,1.05.57A3.14,3.14,0,0,0,368.77,118.22Z"/><path class="cls-3" d="M399,108.38h1.59l-4.12,5.27,4.48,5.62h-1.59l-3.85-5h-1.55v5h-1.4V108.38h1.4v4.81h1.42Z"/><path class="cls-3" d="M428.67,119.48a5.22,5.22,0,0,1-2.18-.45,5.35,5.35,0,0,1-1.73-1.23,5.78,5.78,0,0,1-1.14-1.81,5.93,5.93,0,0,1-.41-2.2,5.76,5.76,0,0,1,.41-2.16,5.57,5.57,0,0,1,1.13-1.78,5.41,5.41,0,0,1,1.72-1.21,5.28,5.28,0,0,1,2.18-.45,5.24,5.24,0,0,1,3.89,1.67,5.94,5.94,0,0,1,1.11,1.78,5.84,5.84,0,0,1,.39,2.13v.34a.69.69,0,0,1,0,.23H424.7a4.6,4.6,0,0,0,.41,1.62,4.32,4.32,0,0,0,.89,1.28,3.92,3.92,0,0,0,1.24.85,3.74,3.74,0,0,0,1.49.3,4.21,4.21,0,0,0,1-.14,4.61,4.61,0,0,0,1-.4,3.38,3.38,0,0,0,.79-.62,2.66,2.66,0,0,0,.55-.8l1.23.33a3.51,3.51,0,0,1-.71,1.1,4.81,4.81,0,0,1-1.07.86,5.27,5.27,0,0,1-1.33.56A5.94,5.94,0,0,1,428.67,119.48Zm4-6.23a4.54,4.54,0,0,0-.41-1.6,4.34,4.34,0,0,0-.88-1.24,4.07,4.07,0,0,0-1.23-.82,3.95,3.95,0,0,0-4.25.82,3.84,3.84,0,0,0-.85,1.25,4.64,4.64,0,0,0-.39,1.59Z"/><path class="cls-3" d="M461.64,119.27h-1.38v-9.66h-3.82v-1.23h9v1.23h-3.83Z"/></svg>