<svg id="Слой_1" data-name="Слой 1" xmlns="http://www.w3.org/2000/svg" viewBox="0 0 612 792"><defs><style>.cls-1{fill:#fff;}.cls-2{fill:#fcfcfc;}</style></defs><title>Монтажная область 1</title><path d="M508,653H72C61,16,649,84,54,166428451632C51,611,67,51,591,3351571C53,35,566,87,55,1656227581855872C63,88,552,2,71,855506803655061C182,1,550,68,283,6655066385355066c104-23,267,0,106-11550663919755066l2,4236114c-5-12-32-14-10-9358533768935727c-22-46-29,1-40-53482323735083c-34-22,12-66-50-10356932758236034c-17-11,69-67-18-61363012730636448c-1,65,98,51-1,8437882729238597c0-13,131-50-10-6141398244941402C224,74,414,7,204,57414031844141403C182,67,414,3,180,924140317941403c-1,324-96,87,238-917942083C179,454,65,179,1,488481789952231C178,98,530,5,176,8533461678753354c-18,63,357,55-27,46533581403853356c-19-20,384-1-22,35531121278952124c0-1,360-31,0-1453921278842026h0416391278841403C111,44,414,3,95,64414077985414C76,87,413,99,73,8241388709341324C59,96,410,84,54,254030951393c-3,306,13,26,216,851209C51,31,208,26,51,782075651920679C57,6,174,18,80,1214971123814262c34-6,62,1,36,6714154119141l87,62c0-98-62-119,0-5614159204314165c31-84-58-20,51,8161392668218886C268,4,192,5,270,8192122735819212c76,1-78,3,150,13192114935319211c76-14-228-10,79,661925030319216c19-66-307,1,29-46203265289121843c0,58-308,47,0,51223335289222626c3-66-302-66,5-80225955348422632c7,1-306,33,12-522811550562303c12,41-312,35,15,3424026563247l3,267C562,68,308,56,562,26309085620530968c-5,62-240-22-13,21328345364132879C534,328,87,531,59,3288528933288C528,93,331,6,528,93333595289333557h0436885289348754s5-91,0-4578855289662451c0,8,106-81-2-67642335181964799c-11-9,124-7-15,2065136508653Z"/><path class="cls-1" d="M289,6363597c70-51,346,34,139-1635974981163597c81,2,207,35,83,26633745118862227h035629511882233s-300-52-2-122092497982092C420,82,209,2,343,66209226652092c-87,29-134-47-88,18208412527319957c-12-23-82-17-33-57158281947215807c-50,29-65-18-72,12157881282315808c-56,2,8-1-82-1418426681121802C67,86,274,1,68,2330016805386c0,3,325,86,3,1239698789339699C134,26,397,1,189,59397012449239699c63,8,207,39,66,22393842558738603c0,13,121-78,0,336603255935604c0,10,94-8,2-11347362638434574c16-72,86-42,25-4734121291413387c30,50,50,60,52,13330973561833515c36-17,3,45,50-353416539795345C408,347,42,409,34,349134093435928C409,34,424,45,409,35489614093355477c0-2,147-29,0,46558824089756018c-2-45,153-4-4-785654640276567c-5,83,163,12-8,88567723954356772C290,44,567,75,185,4456774804556775C70,57,567,75,68,457029680458015c0-1,526,27,0-160848680362264c0,1,565,52,2,3863597811463597c80,23,565,56,150-28635972896363597Z"/><path class="cls-2" d="M145,364143h051608l16,3651608h04143L145,364143Z"/><path class="cls-1" d="M529,2524348h031163c3-7-218,38,5,59311865374331158c8-10-223-83,11-3308085458730281C546,5,286,546,5,269185458725237C545,82,247,3,542,83244115375424353c-8,11-299-59-10-55243485292524348Z"/><path d="M443,372263c28-29-217-22,51,2824958494772774c0,24-189-46-23-9328654436832877c-56,30-143,33-79-930563392327769c0-33-143,44,23-222646443372263Z"/><path class="cls-1" d="M443,4124345c-19,34-200-35-34,4258954094427753c0-1-113-38,15,3131148443431165c37,23-113,7,53,2029584776427729c0-64-219-41-16-8724334434124345Z"/><path d="M93,7225183S259,98,93,926814936727628c0,38,190,17-5,2528742826728554C78,97,284,31,76,8328163768127773c0-11,184-22,0-1924348768222635c0,23,145-42,4-3321809849121797c9,45,137,53,13,1222124936222689c0,48,142-24,0,2624352936925183v325183Z"/><path d="M76,9231179s232-45,0-31305117730183c1-10,221-16,4-5729505847729487c9,10,214,65,12,632968930330113c1-5,216-63,1-931506931132198c-1,23,233-17-4-3532841850132858C80,89,328,74,77,432559769532126c-1,59,241,9-1,8531495768931179v331179Z"/></svg>