<svg xmlns="http://www.w3.org/2000/svg" width="228.457" height="65.369" viewBox="0 0 228.457 65.369"><text transform="matrix(1.0262 -.0042 .0042 1 74.353 39.579)"><tspan x="0" y="0" fill="#FFF" font-family="'HeliosCondC'" font-size="29.723" letter-spacing="8.77">E</tspan><tspan x="23.283" y="0" fill="#FFF" font-family="'HeliosCondC'" font-size="29.723" letter-spacing="8.77">MAILI</tspan><tspan x="134.052" y="0" fill="#FFF" font-family="'HeliosCondC'" font-size="29.723">O</tspan></text><text transform="translate(76.336 54.156)"><tspan x="0" y="0" fill="#FFF" stroke="#FFF" stroke-width=".12" stroke-miterlimit="5" font-family="'Dotum'" font-size="8.726">У</tspan><tspan x="5.266" y="0" fill="#FFF" stroke="#FFF" stroke-width=".12" stroke-miterlimit="5" font-family="'Dotum'" font-size="8.726">БОЙНЫ</tspan><tspan x="43.16" y="0" fill="#FFF" stroke="#FFF" stroke-width=".12" stroke-miterlimit="5" font-family="'Dotum'" font-size="8.726">Й </tspan><tspan x="52.619" y="0" fill="#FFF" stroke="#FFF" stroke-width=".12" stroke-miterlimit="5" font-family="'Dotum'" font-size="8.726">EMAIL-МАРКЕТИН</tspan><tspan x="145.194" y="0" fill="#FFF" stroke="#FFF" stroke-width=".12" stroke-miterlimit="5" font-family="'Dotum'" font-size="8.726">Г</tspan></text><path fill-rule="evenodd" clip-rule="evenodd" fill="#51B2D5" d="M76.092 42.149h150.505v2.345H76.092zm-.132-30.248h150.505V14.1H75.96z"/><g fill-rule="evenodd" clip-rule="evenodd"><path fill="#51B2D5" d="M56.611 9.176l4.138 7.167 3.922 6.794c-2.839 1.642-5.036 5.909-5.036 9.425 0 3.516 2.32 7.817 5.159 9.46l-4.045 7.006-4.167 7.218c-2.983-1.726-7.813-1.714-10.757.078-2.737 1.667-5.431 5.606-5.431 9.046H23.999c0-3.544-2.097-7.094-4.711-8.72-2.826-1.758-7.931-2.603-11.17-.728l-3.98-6.894-4.003-6.933c2.839-1.642 4.931-5.708 4.931-9.224 0-3.515-2.228-7.719-5.066-9.361l4.138-7.167 3.946-6.835c3.096 1.791 7.74 1.24 10.514-.315C21.411 7.615 23.875 3.714 23.875 0h16.642c0 3.919 2.571 7.385 5.626 8.884 2.696 1.323 7.546 1.982 10.468.292zm1.885 39.014a7.665 7.665 0 1 0-13.133-7.906 7.665 7.665 0 0 0 13.133 7.906zm-.139-31.241a7.664 7.664 0 0 0-13.154 7.869 7.664 7.664 0 0 0 13.154-7.869zM32.219 2.328a7.664 7.664 0 0 0-7.664 7.664c0 4.233 3.431 7.664 7.664 7.664s7.664-3.431 7.664-7.664a7.664 7.664 0 0 0-7.664-7.664zM6.244 17.27a7.666 7.666 0 0 0 2.649 10.51 7.663 7.663 0 0 0 10.51-2.649A7.664 7.664 0 1 0 6.244 17.27zm.078 30.959a7.664 7.664 0 0 0 10.491 2.72 7.663 7.663 0 0 0 2.72-10.492 7.664 7.664 0 0 0-13.211 7.772zm26.033 14.813a7.664 7.664 0 1 0 .111-15.329 7.664 7.664 0 0 0-.111 15.329zM25.038 20.34v25.227H40.33V20.34H25.038z"/><path fill="#FFF" d="M26.288 21.743l.077 18.01 12.91-.037-.008-1.801-10.839.029-.029-6.754 8.806-.027-.008-1.801-8.805.027-.025-5.853 10.813-.029-.008-1.801zM14.953 46.755a3.15 3.15 0 0 1-2.045.756c-.87 0-1.658-.353-2.229-.923l.001-.001a3.141 3.141 0 0 1-.924-2.227c0-.87.353-1.658.923-2.228a3.142 3.142 0 0 1 3.716-.548l.04.022.004-.46 1.106.009-.033 4.03.002.078c.016.357.152.661.372.874.221.214.531.341.893.343l.082-.002c.361-.016.639-.137.836-.317.341-.311.401-.757.451-1.191a5.263 5.263 0 0 0-1.51-4.34 5.26 5.26 0 0 0-3.731-1.545 5.26 5.26 0 0 0-3.731 1.545c-.954.955-1.545 2.274-1.545 3.731s.591 2.776 1.545 3.731a5.26 5.26 0 0 0 3.731 1.545 5.25 5.25 0 0 0 2.31-.531l.482.998a6.405 6.405 0 0 1-2.791.644 6.367 6.367 0 0 1-4.516-1.871 6.366 6.366 0 0 1-1.871-4.516c0-1.763.715-3.36 1.871-4.516a6.367 6.367 0 0 1 4.516-1.871c1.763 0 3.36.715 4.516 1.871a6.367 6.367 0 0 1 1.765 5.671 2.384 2.384 0 0 1-.744 1.465c-.376.344-.888.576-1.534.604l-.134.002a2.37 2.37 0 0 1-1.657-.651 2.574 2.574 0 0 1-.167-.181zm-.531-3.766a2.025 2.025 0 0 0-1.514-.67c-.564 0-1.074.229-1.443.598s-.597.88-.597 1.443c0 .565.228 1.075.596 1.443h.002c.369.369.88.598 1.443.598a2.031 2.031 0 0 0 1.546-.706 2.683 2.683 0 0 1-.045-.385c-.001-.774.005-1.548.012-2.321zm-.599-18.903a3.11 3.11 0 0 1-2.151-.071 3.097 3.097 0 0 1-1.692-1.674l.001-.001a3.104 3.104 0 0 1 1.659-4.073 3.102 3.102 0 0 1 3.6.883l.029.035.175-.419 1.008.42-1.531 3.671-.028.072c-.118.332-.107.661.014.937.123.278.359.51.689.647l.076.029c.336.12.635.112.882.022.427-.157.649-.543.856-.92a5.193 5.193 0 0 0 .237-4.529 5.193 5.193 0 0 0-2.833-2.802 5.189 5.189 0 0 0-3.985.022 5.191 5.191 0 0 0-2.802 2.834 5.189 5.189 0 0 0 .022 3.985 5.219 5.219 0 0 0 5.143 3.177l.068 1.091a6.31 6.31 0 0 1-2.791-.452 6.282 6.282 0 0 1-3.43-3.392 6.282 6.282 0 0 1-.027-4.824 6.286 6.286 0 0 1 3.392-3.43 6.282 6.282 0 0 1 4.824-.027 6.28 6.28 0 0 1 3.43 3.392 6.282 6.282 0 0 1-.5 5.841 2.344 2.344 0 0 1-1.226 1.061c-.472.174-1.026.195-1.627-.02l-.123-.048a2.336 2.336 0 0 1-1.359-1.437zm.918-3.639a2.01 2.01 0 0 0-1.134-1.176 2.008 2.008 0 0 0-1.542.009c-.475.2-.874.581-1.084 1.096a2.006 2.006 0 0 0 .007 1.541l.002.001c.2.475.581.874 1.096 1.084a2.009 2.009 0 0 0 1.677-.069c.024-.123.058-.246.102-.369.287-.708.581-1.413.876-2.117zm39.677 25.656a3.165 3.165 0 0 1-1.826 1.191 3.14 3.14 0 0 1-2.376-.405l.001-.001a3.14 3.14 0 0 1-1.395-1.966 3.143 3.143 0 0 1 .405-2.377 3.146 3.146 0 0 1 3.499-1.359l.045.013-.098-.45 1.08-.237.863 3.936.019.076c.094.344.295.611.556.769.263.159.594.215.947.136l.079-.02c.349-.096.592-.276.744-.495.263-.379.222-.827.175-1.261a5.257 5.257 0 0 0-2.435-3.896 5.25 5.25 0 0 0-3.978-.678 5.256 5.256 0 0 0-3.293 2.335 5.263 5.263 0 0 0-.678 3.98 5.259 5.259 0 0 0 2.333 3.294 5.25 5.25 0 0 0 3.978.678c.393-.09.771-.222 1.125-.393a5.334 5.334 0 0 0 1.008-.637l.691.866a6.391 6.391 0 0 1-2.578 1.247 6.36 6.36 0 0 1-4.816-.821 6.363 6.363 0 0 1-2.825-3.987 6.37 6.37 0 0 1 .821-4.818 6.362 6.362 0 0 1 3.986-2.826 6.36 6.36 0 0 1 4.816.822 6.363 6.363 0 0 1 2.978 5.137 2.377 2.377 0 0 1-.4 1.593c-.291.419-.738.758-1.361.929l-.13.032a2.372 2.372 0 0 1-1.76-.267 3.976 3.976 0 0 1-.2-.14zm-1.353-3.553a2.015 2.015 0 0 0-1.624-.317 2.034 2.034 0 0 0-1.274.903c-.278.442-.387.99-.262 1.54.125.551.461.998.901 1.275h.002a2.046 2.046 0 0 0 2.424-.184c.188-.163.346-.361.465-.585a2.54 2.54 0 0 1-.129-.365c-.172-.756-.338-1.512-.503-2.267z"/></g></svg>