<svg width="33" height="26" viewBox="0 0 33 26" fill="none" xmlns="http://www.w3.org/2000/svg">
<path d="M25.6276 26C23.495 26 21.7661 24.2696 21.7661 22.1353C21.7661 20.0006 23.495 18.2703 25.6276 18.2703C27.7605 18.2703 29.4894 20.0006 29.4894 22.1353C29.4894 24.2696 27.7605 26 25.6276 26V26ZM25.6276 19.6756C24.2762 19.6756 23.1703 20.7824 23.1703 22.1353C23.1703 23.4878 24.2762 24.5947 25.6276 24.5947C26.9794 24.5947 28.0853 23.4878 28.0853 22.1353C28.0853 20.7824 26.9794 19.6756 25.6276 19.6756V19.6756Z" fill="#4B392C"/>
<path d="M7.37229 26C5.23968 26 3.5105 24.2696 3.5105 22.1353C3.5105 20.0006 5.23968 18.2703 7.37229 18.2703C9.5049 18.2703 11.2341 20.0006 11.2341 22.1353C11.2341 24.2696 9.5049 26 7.37229 26ZM7.37229 19.6756C6.02057 19.6756 4.91492 20.7824 4.91492 22.1353C4.91492 23.4878 6.02057 24.5947 7.37229 24.5947C8.724 24.5947 9.82965 23.4878 9.82965 22.1353C9.82965 20.7824 8.724 19.6756 7.37229 19.6756Z" fill="#4B392C"/>
<path d="M10.5144 21.7837H22.4857V23.1893H10.5144V21.7837Z" fill="#4B392C"/>
<path d="M4.23025 23.1893H0V0H20.3616V22.4865H18.9574V1.40533H1.40417V21.7837H4.23025V23.1893Z" fill="#4B392C"/>
<path d="M19.6597 11.9459H32.298V13.3512H19.6597V11.9459Z" fill="#4B392C"/>
<path d="M32.9999 23.1893H28.7697V21.7837H31.5958V12.8769L24.7675 3.51339H19.6597V2.10806H25.4784L32.9999 12.4201V23.1893Z" fill="#4B392C"/>
<path d="M8.42549 15.0466L3.29993 9.9168L4.29166 8.92425L8.42549 13.0615L15.3677 6.10458L16.3684 7.10615L8.42549 15.0466Z" fill="#4B392C"/>
</svg>
