<svg width="35" height="21" viewBox="0 0 35 21" fill="none" xmlns="http://www.w3.org/2000/svg">
<path d="M28.7117 7.27998H27.5777L25.3618 3.59547C24.0224 1.36808 21.6451 0 19.0763 0C13.7928 0 9.42857 0.0184799 9.4365 0.0184799C5.44072 0.231909 2.37193 2.77577 1.13279 6.17496C-0.128031 9.63393 0.0039558 12.0881 0.0039558 14.7713C0.0039558 15.9961 0.976807 17.0093 2.17276 17.0189H4.40731C4.65447 19.2508 6.50852 21 8.75291 21C10.9915 21 12.8416 19.2686 13.0964 17.045H14.5791C14.7122 17.0953 14.2471 17.08 20.2714 17.08C20.5415 19.2868 22.3837 21 24.6105 21C26.8374 21 28.6796 19.2868 28.9496 17.08H32.8127C34.0187 17.08 34.9999 16.0752 34.9999 14.84V13.72C35 10.1689 32.179 7.27998 28.7117 7.27998ZM6.42048 6.25518C6.8027 4.55055 8.26229 3.36006 9.97012 3.36006H11.4871V7.28005H6.87734C6.70988 7.28005 6.55397 7.20312 6.4496 7.06893C6.25233 6.81539 6.34632 6.58586 6.42048 6.25518ZM8.75298 19.8799C6.94385 19.8799 5.4721 18.3726 5.4721 16.5199C5.4721 14.6673 6.94385 13.16 8.75298 13.16C10.5621 13.16 12.0339 14.6673 12.0339 16.5199C12.0339 18.3726 10.5621 19.8799 8.75298 19.8799ZM17.502 11.2H16.4084C16.1064 11.2 15.8616 10.9492 15.8616 10.64C15.8616 10.3307 16.1064 10.08 16.4084 10.08H17.502C17.804 10.08 18.0488 10.3307 18.0488 10.64C18.0488 10.9493 17.804 11.2 17.502 11.2ZM18.5273 7.27998H12.5825V3.35999H18.5273V7.27998ZM19.6227 7.27998V3.35999H23.8412C24.2748 3.87337 24.2729 3.92062 26.2933 7.27998H19.6227ZM24.6106 19.8799C22.8015 19.8799 21.3297 18.3726 21.3297 16.5199C21.3297 14.6673 22.8015 13.16 24.6106 13.16C26.4197 13.16 27.8915 14.6673 27.8915 16.5199C27.8915 18.3726 26.4197 19.8799 24.6106 19.8799ZM32.2659 13.23C31.9644 13.23 31.7192 12.9787 31.7192 12.67C31.7192 12.3612 31.9644 12.11 32.2659 12.11H33.6626C33.774 12.4684 33.8488 12.8433 33.8835 13.23H32.2659Z" fill="#4B392C"/>
</svg>
