<svg width="423" height="45" viewBox="0 0 423 45" fill="none" xmlns="http://www.w3.org/2000/svg">
<path d="M-13 3.55808C-6.83877 20.4414 11.915 51.6499 37.6403 41.4176C42.8731 40.3944 57.1368 31.3899 72.3289 3.55808C76.3801 15.4105 89.9517 40.0874 111.828 43.9757C117.061 44.0609 129.502 42.2362 137.402 34.255C142.55 29.3094 154.265 16.2461 159.937 3.55808C162.3 15.1547 174.015 39.4735 201.968 43.9757C210.324 44.4873 230.782 37.12 245.772 3.55808C252.271 22.3173 273.016 55.7428 304.008 39.3711C308.313 37.4952 320.112 27.7063 332.873 3.55808C338.19 20.5266 357.13 51.4453 390.35 39.3711C395.161 37.9216 408.226 28.2179 422 1" stroke="#BA9A86" stroke-width="1.5" stroke-linecap="round" stroke-dasharray="5.3 5.3"/>
</svg>
