<svg width="221" height="409" viewBox="0 0 221 409" fill="none" xmlns="http://www.w3.org/2000/svg">
<path d="M16.1438 369.155C18.5055 363.584 23.3242 297.454 99.5648 289.243C108.904 288.013 130.338 289.81 141.354 306.834C143.431 313.968 142.934 327.591 124.329 325.011C112.814 319.414 92.7137 298.631 104.425 260.269C111.163 238.642 138.097 195.901 191.93 197.952C201.371 196.817 222.216 198.063 230.068 212.123C231.642 219.185 230.26 232.897 212.146 231.257C203.763 227.196 188.176 209.522 192.891 171.312C198.336 151.269 219.764 108.958 261.913 100.064C273.152 97.6199 298.747 97.2089 311.22 115.118C314.178 119.685 318 130.688 309.623 138.168C299.701 141.646 279.146 137.041 276.306 90.7962C276.207 69.1507 289.981 23.3826 345.875 13.4749" stroke="#FFBEB5" stroke-dasharray="5.3 5.3"/>
</svg>
