<svg width="345" height="45" viewBox="0 0 345 45" fill="none" xmlns="http://www.w3.org/2000/svg">
<path d="M1 3.55808C7.16123 20.4414 25.915 51.6499 51.6403 41.4176C56.8731 40.3944 71.1368 31.3899 86.3289 3.55808C90.3801 15.4105 103.952 40.0874 125.828 43.9757C131.061 44.0609 143.502 42.2362 151.402 34.255C156.55 29.3094 168.265 16.2461 173.937 3.55808C176.3 15.1547 188.015 39.4735 215.968 43.9757C224.324 44.4873 244.782 37.12 259.772 3.55808C266.271 22.3173 287.016 55.7428 318.008 39.3711C322.313 37.4952 334.112 27.7063 346.873 3.55808C352.19 20.5266 371.13 51.4453 404.35 39.3711C409.161 37.9216 422.226 28.2179 436 1" stroke="#BA9A86" stroke-width="1.5" stroke-linecap="round" stroke-dasharray="5.3 5.3"/>
</svg>
