<svg width="206" height="365" viewBox="0 0 206 365" fill="none" xmlns="http://www.w3.org/2000/svg">
<path d="M46.1503 11.5211C50.6745 14.9438 109.697 34.4658 99.707 105.664C98.6866 114.437 92.1459 133.513 74.1452 139.631C67.1836 139.886 54.9116 136.315 61.517 119.99C69.2417 110.802 92.7402 97.2851 124.937 116.716C143.057 127.794 175.751 162.068 161.561 210.543C160.431 219.387 154.526 238.054 139.945 241.974C133.164 241.788 121.013 237.392 126.652 221.299C132.263 214.606 151.901 204.481 185.562 217.516C202.539 227.056 236.102 256.226 234.538 296.583C234.187 307.361 228.7 330.727 209.562 337.966C204.732 339.61 193.853 340.566 188.97 331.237C188.08 321.42 196.973 303.786 239.669 311.791C259.372 316.657 297.83 339.659 294.041 392.746" stroke="white" stroke-linecap="round" stroke-dasharray="5.3 5.3"/>
</svg>
