<svg width="29" height="27" viewBox="0 0 29 27" fill="none" xmlns="http://www.w3.org/2000/svg">
<path d="M28.5971 5.78483L24.8561 4.02446C24.2681 1.60161 22.4515 0 20.2437 0C17.3806 0 15.4562 2.20373 15.4562 5.48439C15.4562 7.66105 7.43734 16.2776 0.434026 19.153C0.333814 19.1943 0.244405 19.2593 0.172965 19.3425C0.101525 19.4258 0.0500396 19.5252 0.022636 19.6327C-0.0047675 19.7401 -0.00732731 19.8527 0.0151617 19.9613C0.0376507 20.07 0.084563 20.1717 0.152139 20.2584L2.82645 23.6771C2.93395 23.8143 3.08712 23.9056 3.25629 23.9333C3.42545 23.961 3.59859 23.9231 3.74216 23.827L7.40361 21.3713C9.21237 22.0716 11.1244 22.4475 13.0567 22.4826L13.8887 25.579H9.39025C9.20712 25.579 9.0315 25.6538 8.90201 25.7871C8.77252 25.9203 8.69977 26.101 8.69977 26.2895C8.69977 26.4779 8.77252 26.6586 8.90201 26.7919C9.0315 26.9251 9.20712 27 9.39025 27H22.9046C23.0878 27 23.2634 26.9251 23.3929 26.7919C23.5224 26.6586 23.5951 26.4779 23.5951 26.2895C23.5951 26.101 23.5224 25.9203 23.3929 25.7871C23.2634 25.6538 23.0878 25.579 22.9046 25.579H19.3694L18.1852 21.3357C18.8295 21.0162 19.4418 20.6326 20.0134 20.1904C23.335 17.6076 25.2096 13.0983 24.9803 8.31884L28.5284 7.10539C28.6598 7.06014 28.7749 6.97528 28.8588 6.86183C28.9428 6.74839 28.9916 6.6116 28.999 6.46922C29.0064 6.32685 28.9721 6.18547 28.9004 6.06344C28.8287 5.94141 28.7231 5.84438 28.5971 5.78493V5.78483ZM17.9327 25.579H15.3203L14.4701 22.415C15.2963 22.326 16.1107 22.1445 16.8986 21.8737L17.9327 25.579ZM24.0375 7.14344C23.8906 7.19399 23.7645 7.29384 23.6794 7.42696C23.5943 7.56008 23.5551 7.71876 23.5682 7.87754C23.9323 12.3128 22.2101 16.7009 19.1812 19.0566C16.1683 21.3998 12.1508 21.6968 7.56153 19.9163C7.45992 19.8766 7.35063 19.8622 7.24259 19.8743C7.13454 19.8863 7.0308 19.9245 6.93982 19.9857L3.5103 22.2852L1.79892 20.0968C3.75872 19.1329 5.61892 17.9677 7.35121 16.6192C8.57903 17.0704 9.87079 17.3101 11.1744 17.3287C12.768 17.3539 14.3322 16.8856 15.664 15.9846C17.6289 14.6337 18.608 12.5529 18.6862 11.1913C18.6936 11.0971 18.6825 11.0022 18.6538 10.9123C18.6251 10.8225 18.5792 10.7394 18.5189 10.6681C18.4585 10.5967 18.3849 10.5385 18.3024 10.4967C18.2199 10.455 18.1302 10.4307 18.0384 10.4251C17.9466 10.4196 17.8547 10.433 17.768 10.4645C17.6813 10.496 17.6016 10.545 17.5336 10.6086C17.4656 10.6722 17.4106 10.7491 17.3718 10.8349C17.3331 10.9207 17.3113 11.0136 17.3079 11.1081C17.2594 11.9602 16.577 13.6484 14.8966 14.803C13.7096 15.6194 11.6985 16.3456 8.70651 15.5464C13.1523 11.8897 16.8374 7.48871 16.8374 5.48439C16.8374 3.61023 17.7302 1.42106 20.244 1.42106C21.9041 1.42106 23.2123 2.69086 23.5778 4.6566C23.5983 4.76799 23.6446 4.87267 23.7126 4.96187C23.7806 5.05107 23.8685 5.12218 23.9687 5.16924L26.4272 6.32596L24.0375 7.14344Z" fill="#7F675B"/>
<ellipse cx="21.5304" cy="5.23222" rx="1.50649" ry="1.55021" fill="#7F675B"/>
</svg>
